solid vcg
  facet normal -9.169943e-007 -9.169956e-007 1.000000e+000
    outer loop
      vertex  1.974000e+000 9.750506e-002 3.960001e-001
      vertex  1.969000e+000 1.025050e-001 3.960001e-001
      vertex  1.974000e+000 -9.749494e-002 3.959999e-001
    endloop
  endfacet
  facet normal 8.722646e-007 -8.722620e-007 1.000000e+000
    outer loop
      vertex  1.974000e+000 -9.749494e-002 3.959999e-001
      vertex  1.969000e+000 1.025050e-001 3.960001e-001
      vertex  1.969000e+000 -1.024950e-001 3.959999e-001
    endloop
  endfacet
  facet normal -0.000000e+000 0.000000e+000 1.000000e+000
    outer loop
      vertex  1.974000e+000 -9.749494e-002 3.959999e-001
      vertex  1.969000e+000 -1.024950e-001 3.959999e-001
      vertex  2.169000e+000 -9.749442e-002 3.959999e-001
    endloop
  endfacet
  facet normal 0.000000e+000 0.000000e+000 1.000000e+000
    outer loop
      vertex  2.169000e+000 -9.749442e-002 3.959999e-001
      vertex  1.969000e+000 -1.024950e-001 3.959999e-001
      vertex  2.174000e+000 -1.024944e-001 3.959999e-001
    endloop
  endfacet
  facet normal -9.169681e-007 -9.169968e-007 1.000000e+000
    outer loop
      vertex  2.169000e+000 -9.749442e-002 3.959999e-001
      vertex  2.174000e+000 -1.024944e-001 3.959999e-001
      vertex  2.169000e+000 9.750557e-002 3.960001e-001
    endloop
  endfacet
  facet normal 8.722507e-007 -8.722611e-007 1.000000e+000
    outer loop
      vertex  2.169000e+000 9.750557e-002 3.960001e-001
      vertex  2.174000e+000 -1.024944e-001 3.959999e-001
      vertex  2.174000e+000 1.025056e-001 3.960001e-001
    endloop
  endfacet
  facet normal 0.000000e+000 0.000000e+000 1.000000e+000
    outer loop
      vertex  2.174000e+000 1.025056e-001 3.960001e-001
      vertex  1.974000e+000 9.750506e-002 3.960001e-001
      vertex  2.169000e+000 9.750557e-002 3.960001e-001
    endloop
  endfacet
  facet normal 0.000000e+000 -0.000000e+000 1.000000e+000
    outer loop
      vertex  1.974000e+000 9.750506e-002 3.960001e-001
      vertex  2.174000e+000 1.025056e-001 3.960001e-001
      vertex  1.969000e+000 1.025050e-001 3.960001e-001
    endloop
  endfacet
  facet normal -5.862761e-007 -5.862761e-007 1.000000e+000
    outer loop
      vertex  1.919000e+000 1.525049e-001 3.960001e-001
      vertex  1.914000e+000 1.575049e-001 3.960001e-001
      vertex  1.919000e+000 -1.524951e-001 3.959999e-001
    endloop
  endfacet
  facet normal 5.676641e-007 -5.676624e-007 1.000000e+000
    outer loop
      vertex  1.919000e+000 -1.524951e-001 3.959999e-001
      vertex  1.914000e+000 1.575049e-001 3.960001e-001
      vertex  1.914000e+000 -1.574951e-001 3.959999e-001
    endloop
  endfacet
  facet normal -0.000000e+000 0.000000e+000 1.000000e+000
    outer loop
      vertex  1.919000e+000 -1.524951e-001 3.959999e-001
      vertex  1.914000e+000 -1.574951e-001 3.959999e-001
      vertex  2.224000e+000 -1.524943e-001 3.959999e-001
    endloop
  endfacet
  facet normal 0.000000e+000 0.000000e+000 1.000000e+000
    outer loop
      vertex  2.224000e+000 -1.524943e-001 3.959999e-001
      vertex  1.914000e+000 -1.574951e-001 3.959999e-001
      vertex  2.229000e+000 -1.574943e-001 3.959999e-001
    endloop
  endfacet
  facet normal -5.862603e-007 -5.862761e-007 1.000000e+000
    outer loop
      vertex  2.224000e+000 -1.524943e-001 3.959999e-001
      vertex  2.229000e+000 -1.574943e-001 3.959999e-001
      vertex  2.224000e+000 1.525057e-001 3.960001e-001
    endloop
  endfacet
  facet normal 5.676506e-007 -5.676624e-007 1.000000e+000
    outer loop
      vertex  2.224000e+000 1.525057e-001 3.960001e-001
      vertex  2.229000e+000 -1.574943e-001 3.959999e-001
      vertex  2.229000e+000 1.575057e-001 3.960001e-001
    endloop
  endfacet
  facet normal 0.000000e+000 -0.000000e+000 1.000000e+000
    outer loop
      vertex  2.224000e+000 1.525057e-001 3.960001e-001
      vertex  2.229000e+000 1.575057e-001 3.960001e-001
      vertex  1.919000e+000 1.525049e-001 3.960001e-001
    endloop
  endfacet
  facet normal 0.000000e+000 -0.000000e+000 1.000000e+000
    outer loop
      vertex  1.919000e+000 1.525049e-001 3.960001e-001
      vertex  2.229000e+000 1.575057e-001 3.960001e-001
      vertex  1.914000e+000 1.575049e-001 3.960001e-001
    endloop
  endfacet
  facet normal 0.000000e+000 0.000000e+000 1.000000e+000
    outer loop
      vertex  2.229000e+000 -1.574942e-001 3.609999e-001
      vertex  1.914000e+000 -1.574951e-001 3.609999e-001
      vertex  2.254000e+000 -1.674942e-001 3.609999e-001
    endloop
  endfacet
  facet normal 0.000000e+000 0.000000e+000 1.000000e+000
    outer loop
      vertex  2.254000e+000 -1.674942e-001 3.609999e-001
      vertex  1.914000e+000 -1.574951e-001 3.609999e-001
      vertex  -1.779000e+000 -1.600050e-001 3.609999e-001
    endloop
  endfacet
  facet normal 0.000000e+000 0.000000e+000 1.000000e+000
    outer loop
      vertex  2.254000e+000 -1.674942e-001 3.609999e-001
      vertex  -1.779000e+000 -1.600050e-001 3.609999e-001
      vertex  -1.779000e+000 -1.675050e-001 3.609999e-001
    endloop
  endfacet
  facet normal -2.270662e-007 -5.676637e-007 1.000000e+000
    outer loop
      vertex  2.229000e+000 -1.574942e-001 3.609999e-001
      vertex  2.254000e+000 -1.674942e-001 3.609999e-001
      vertex  2.229000e+000 1.575058e-001 3.610001e-001
    endloop
  endfacet
  facet normal 2.135110e-007 -5.337726e-007 1.000000e+000
    outer loop
      vertex  2.229000e+000 1.575058e-001 3.610001e-001
      vertex  2.254000e+000 -1.674942e-001 3.609999e-001
      vertex  2.254000e+000 1.675058e-001 3.610001e-001
    endloop
  endfacet
  facet normal 0.000000e+000 -0.000000e+000 1.000000e+000
    outer loop
      vertex  2.229000e+000 1.575058e-001 3.610001e-001
      vertex  2.254000e+000 1.675058e-001 3.610001e-001
      vertex  1.914000e+000 1.575049e-001 3.610001e-001
    endloop
  endfacet
  facet normal 0.000000e+000 -0.000000e+000 1.000000e+000
    outer loop
      vertex  1.914000e+000 1.575049e-001 3.610001e-001
      vertex  2.254000e+000 1.675058e-001 3.610001e-001
      vertex  -1.779000e+000 1.674950e-001 3.610001e-001
    endloop
  endfacet
  facet normal -1.535618e-009 -5.676633e-007 1.000000e+000
    outer loop
      vertex  1.914000e+000 1.575049e-001 3.610001e-001
      vertex  -1.779000e+000 1.674950e-001 3.610001e-001
      vertex  1.914000e+000 -1.574951e-001 3.609999e-001
    endloop
  endfacet
  facet normal 4.841954e-008 0.000000e+000 1.000000e+000
    outer loop
      vertex  1.914000e+000 -1.574951e-001 3.609999e-001
      vertex  -1.779000e+000 1.674950e-001 3.610001e-001
      vertex  -1.779000e+000 1.599950e-001 3.610001e-001
    endloop
  endfacet
  facet normal 3.797711e-010 -5.587935e-007 1.000000e+000
    outer loop
      vertex  1.914000e+000 -1.574951e-001 3.609999e-001
      vertex  -1.779000e+000 1.599950e-001 3.610001e-001
      vertex  -1.779000e+000 -1.600050e-001 3.609999e-001
    endloop
  endfacet
  facet normal 2.123747e-006 -7.179323e-001 6.961129e-001
    outer loop
      vertex  7.870008e-001 -3.310851e-001 1.922858e-001
      vertex  2.023002e+000 -8.374944e-001 -3.300005e-001
      vertex  2.254000e+000 -1.674942e-001 3.609999e-001
    endloop
  endfacet
  facet normal 1.912526e-006 -7.179326e-001 6.961126e-001
    outer loop
      vertex  2.023002e+000 -8.374944e-001 -3.300005e-001
      vertex  7.870008e-001 -3.310851e-001 1.922858e-001
      vertex  -2.368388e-001 -8.375004e-001 -3.300005e-001
    endloop
  endfacet
  facet normal 1.560614e-006 -7.179323e-001 6.961130e-001
    outer loop
      vertex  -2.368388e-001 -8.375004e-001 -3.300005e-001
      vertex  7.870008e-001 -3.310851e-001 1.922858e-001
      vertex  5.770008e-001 -3.310855e-001 1.922858e-001
    endloop
  endfacet
  facet normal 1.728963e-006 -7.179323e-001 6.961129e-001
    outer loop
      vertex  -2.368388e-001 -8.375004e-001 -3.300005e-001
      vertex  5.770008e-001 -3.310855e-001 1.922858e-001
      vertex  -1.779000e+000 -2.932629e-001 2.312998e-001
    endloop
  endfacet
  facet normal 1.690312e-006 -7.179332e-001 6.961119e-001
    outer loop
      vertex  -1.779000e+000 -2.932629e-001 2.312998e-001
      vertex  5.770008e-001 -3.310855e-001 1.922858e-001
      vertex  -1.779000e+000 -1.675050e-001 3.609999e-001
    endloop
  endfacet
  facet normal 1.788250e-006 -7.179326e-001 6.961126e-001
    outer loop
      vertex  -1.779000e+000 -1.675050e-001 3.609999e-001
      vertex  5.770008e-001 -3.310855e-001 1.922858e-001
      vertex  5.770006e-001 -1.849016e-001 3.430519e-001
    endloop
  endfacet
  facet normal 1.923128e-006 -7.179238e-001 6.961218e-001
    outer loop
      vertex  -1.779000e+000 -1.675050e-001 3.609999e-001
      vertex  5.770006e-001 -1.849016e-001 3.430519e-001
      vertex  2.254000e+000 -1.674942e-001 3.609999e-001
    endloop
  endfacet
  facet normal 1.629794e-006 -7.179101e-001 6.961359e-001
    outer loop
      vertex  2.254000e+000 -1.674942e-001 3.609999e-001
      vertex  5.770006e-001 -1.849016e-001 3.430519e-001
      vertex  7.870004e-001 -1.849011e-001 3.430519e-001
    endloop
  endfacet
  facet normal 2.181154e-006 -7.179326e-001 6.961126e-001
    outer loop
      vertex  2.254000e+000 -1.674942e-001 3.609999e-001
      vertex  7.870004e-001 -1.849011e-001 3.430519e-001
      vertex  7.870008e-001 -3.310851e-001 1.922858e-001
    endloop
  endfacet
  facet normal 0.000000e+000 0.000000e+000 -1.000000e+000
    outer loop
      vertex  -2.368432e-001 7.957126e-001 -3.299995e-001
      vertex  -2.368432e-001 8.374996e-001 -3.299995e-001
      vertex  1.987998e+000 7.957186e-001 -3.299995e-001
    endloop
  endfacet
  facet normal 0.000000e+000 0.000000e+000 -1.000000e+000
    outer loop
      vertex  1.987998e+000 7.957186e-001 -3.299995e-001
      vertex  -2.368432e-001 8.374996e-001 -3.299995e-001
      vertex  2.022998e+000 8.375056e-001 -3.299995e-001
    endloop
  endfacet
  facet normal -7.378194e-007 6.179826e-007 -1.000000e+000
    outer loop
      vertex  1.987998e+000 7.957186e-001 -3.299995e-001
      vertex  2.022998e+000 8.375056e-001 -3.299995e-001
      vertex  1.988002e+000 -7.957074e-001 -3.300005e-001
    endloop
  endfacet
  facet normal 7.010069e-007 5.871520e-007 -1.000000e+000
    outer loop
      vertex  1.988002e+000 -7.957074e-001 -3.300005e-001
      vertex  2.022998e+000 8.375056e-001 -3.299995e-001
      vertex  2.023002e+000 -8.374944e-001 -3.300005e-001
    endloop
  endfacet
  facet normal 0.000000e+000 -0.000000e+000 -1.000000e+000
    outer loop
      vertex  1.988002e+000 -7.957074e-001 -3.300005e-001
      vertex  2.023002e+000 -8.374944e-001 -3.300005e-001
      vertex  -2.368388e-001 -7.957134e-001 -3.300005e-001
    endloop
  endfacet
  facet normal 0.000000e+000 0.000000e+000 -1.000000e+000
    outer loop
      vertex  -2.368388e-001 -7.957134e-001 -3.300005e-001
      vertex  2.023002e+000 -8.374944e-001 -3.300005e-001
      vertex  -2.368388e-001 -8.375004e-001 -3.300005e-001
    endloop
  endfacet
  facet normal -3.420174e-001 -3.655715e-006 -9.396937e-001
    outer loop
      vertex  -1.102000e+000 7.999705e-002 -1.510795e-002
      vertex  -4.016920e-001 7.375362e-001 -2.699995e-001
      vertex  -9.520002e-001 7.999748e-002 -6.970295e-002
    endloop
  endfacet
  facet normal -3.420209e-001 -2.846220e-007 -9.396924e-001
    outer loop
      vertex  -9.520002e-001 7.999748e-002 -6.970295e-002
      vertex  -4.016920e-001 7.375362e-001 -2.699995e-001
      vertex  -4.016880e-001 -7.375379e-001 -2.700005e-001
    endloop
  endfacet
  facet normal -3.420210e-001 -3.230374e-007 -9.396923e-001
    outer loop
      vertex  -9.520002e-001 7.999748e-002 -6.970295e-002
      vertex  -4.016880e-001 -7.375379e-001 -2.700005e-001
      vertex  -9.519998e-001 -8.000252e-002 -6.970305e-002
    endloop
  endfacet
  facet normal -3.420205e-001 0.000000e+000 -9.396925e-001
    outer loop
      vertex  -1.779000e+000 2.932531e-001 2.313002e-001
      vertex  -2.368432e-001 8.374996e-001 -3.299995e-001
      vertex  -2.368432e-001 7.957126e-001 -3.299995e-001
    endloop
  endfacet
  facet normal -3.420260e-001 2.033084e-005 -9.396905e-001
    outer loop
      vertex  -2.368432e-001 7.957126e-001 -3.299995e-001
      vertex  -4.016920e-001 7.375362e-001 -2.699995e-001
      vertex  -1.779000e+000 2.932531e-001 2.313002e-001
    endloop
  endfacet
  facet normal -3.420204e-001 -9.421383e-008 -9.396925e-001
    outer loop
      vertex  -1.779000e+000 2.932531e-001 2.313002e-001
      vertex  -4.016920e-001 7.375362e-001 -2.699995e-001
      vertex  -1.102000e+000 7.999705e-002 -1.510795e-002
    endloop
  endfacet
  facet normal -3.420202e-001 4.295845e-007 -9.396926e-001
    outer loop
      vertex  -1.779000e+000 2.932531e-001 2.313002e-001
      vertex  -1.102000e+000 7.999705e-002 -1.510795e-002
      vertex  -1.779000e+000 1.599951e-001 2.313001e-001
    endloop
  endfacet
  facet normal -3.420203e-001 0.000000e+000 -9.396925e-001
    outer loop
      vertex  -1.779000e+000 1.599951e-001 2.313001e-001
      vertex  -1.102000e+000 7.999705e-002 -1.510795e-002
      vertex  -1.102000e+000 -8.000296e-002 -1.510805e-002
    endloop
  endfacet
  facet normal -3.420203e-001 5.920201e-008 -9.396926e-001
    outer loop
      vertex  -1.779000e+000 1.599951e-001 2.313001e-001
      vertex  -1.102000e+000 -8.000296e-002 -1.510805e-002
      vertex  -1.779000e+000 -1.600049e-001 2.312999e-001
    endloop
  endfacet
  facet normal -3.420203e-001 4.295844e-007 -9.396926e-001
    outer loop
      vertex  -1.779000e+000 -1.600049e-001 2.312999e-001
      vertex  -1.102000e+000 -8.000296e-002 -1.510805e-002
      vertex  -1.779000e+000 -2.932629e-001 2.312998e-001
    endloop
  endfacet
  facet normal -3.420193e-001 -3.658905e-007 -9.396929e-001
    outer loop
      vertex  -2.368388e-001 -7.957134e-001 -3.300005e-001
      vertex  -2.368388e-001 -8.375004e-001 -3.300005e-001
      vertex  -4.016880e-001 -7.375379e-001 -2.700005e-001
    endloop
  endfacet
  facet normal -3.420211e-001 -3.693957e-006 -9.396924e-001
    outer loop
      vertex  -4.016880e-001 -7.375379e-001 -2.700005e-001
      vertex  -2.368388e-001 -8.375004e-001 -3.300005e-001
      vertex  -1.779000e+000 -2.932629e-001 2.312998e-001
    endloop
  endfacet
  facet normal -3.420198e-001 8.048135e-007 -9.396927e-001
    outer loop
      vertex  -4.016880e-001 -7.375379e-001 -2.700005e-001
      vertex  -1.779000e+000 -2.932629e-001 2.312998e-001
      vertex  -9.519998e-001 -8.000252e-002 -6.970305e-002
    endloop
  endfacet
  facet normal -3.420169e-001 -1.170937e-005 -9.396937e-001
    outer loop
      vertex  -9.519998e-001 -8.000252e-002 -6.970305e-002
      vertex  -1.779000e+000 -2.932629e-001 2.312998e-001
      vertex  -1.102000e+000 -8.000296e-002 -1.510805e-002
    endloop
  endfacet
  facet normal 1.032021e-004 5.312135e-001 8.472380e-001
    outer loop
      vertex  -4.697001e+000 2.893641e-001 3.972422e-001
      vertex  -4.702002e+000 2.949871e-001 3.937172e-001
      vertex  -4.697000e+000 1.315781e-001 4.961731e-001
    endloop
  endfacet
  facet normal 8.293588e-005 5.312130e-001 8.472382e-001
    outer loop
      vertex  -4.697000e+000 1.315781e-001 4.961731e-001
      vertex  -4.702002e+000 2.949871e-001 3.937172e-001
      vertex  -4.702000e+000 1.270701e-001 4.990001e-001
    endloop
  endfacet
  facet normal -1.250003e-006 5.312801e-001 8.471963e-001
    outer loop
      vertex  -4.697000e+000 1.315781e-001 4.961731e-001
      vertex  -4.702000e+000 1.270701e-001 4.990001e-001
      vertex  -4.507000e+000 1.315785e-001 4.961731e-001
    endloop
  endfacet
  facet normal -1.227221e-006 5.312794e-001 8.471966e-001
    outer loop
      vertex  -4.507000e+000 1.315785e-001 4.961731e-001
      vertex  -4.702000e+000 1.270701e-001 4.990001e-001
      vertex  -4.502000e+000 1.270705e-001 4.990001e-001
    endloop
  endfacet
  facet normal -8.432379e-005 5.312132e-001 8.472382e-001
    outer loop
      vertex  -4.507000e+000 1.315785e-001 4.961731e-001
      vertex  -4.502000e+000 1.270705e-001 4.990001e-001
      vertex  -4.507000e+000 2.893646e-001 3.972422e-001
    endloop
  endfacet
  facet normal -1.020844e-004 5.312129e-001 8.472385e-001
    outer loop
      vertex  -4.507000e+000 2.893646e-001 3.972422e-001
      vertex  -4.502000e+000 1.270705e-001 4.990001e-001
      vertex  -4.502000e+000 2.949876e-001 3.937172e-001
    endloop
  endfacet
  facet normal -1.582938e-006 5.311486e-001 8.472787e-001
    outer loop
      vertex  -4.507000e+000 2.893646e-001 3.972422e-001
      vertex  -4.502000e+000 2.949876e-001 3.937172e-001
      vertex  -4.697001e+000 2.893641e-001 3.972422e-001
    endloop
  endfacet
  facet normal -1.503353e-006 5.311467e-001 8.472798e-001
    outer loop
      vertex  -4.697001e+000 2.893641e-001 3.972422e-001
      vertex  -4.502000e+000 2.949876e-001 3.937172e-001
      vertex  -4.702002e+000 2.949871e-001 3.937172e-001
    endloop
  endfacet
  facet normal 8.638656e-005 -5.312141e-001 8.472376e-001
    outer loop
      vertex  -4.697000e+000 -1.316039e-001 4.961729e-001
      vertex  -4.702000e+000 -1.270959e-001 4.989999e-001
      vertex  -4.697000e+000 -2.893899e-001 3.972418e-001
    endloop
  endfacet
  facet normal 9.427243e-005 -5.312139e-001 8.472377e-001
    outer loop
      vertex  -4.697000e+000 -2.893899e-001 3.972418e-001
      vertex  -4.702000e+000 -1.270959e-001 4.989999e-001
      vertex  -4.702000e+000 -2.950128e-001 3.937168e-001
    endloop
  endfacet
  facet normal 1.582956e-006 -5.311547e-001 8.472748e-001
    outer loop
      vertex  -4.697000e+000 -2.893899e-001 3.972418e-001
      vertex  -4.702000e+000 -2.950128e-001 3.937168e-001
      vertex  -4.506999e+000 -2.893893e-001 3.972418e-001
    endloop
  endfacet
  facet normal 1.266270e-006 -5.311469e-001 8.472798e-001
    outer loop
      vertex  -4.506999e+000 -2.893893e-001 3.972418e-001
      vertex  -4.702000e+000 -2.950128e-001 3.937168e-001
      vertex  -4.501998e+000 -2.950124e-001 3.937168e-001
    endloop
  endfacet
  facet normal -1.045148e-004 -5.312144e-001 8.472375e-001
    outer loop
      vertex  -4.506999e+000 -2.893893e-001 3.972418e-001
      vertex  -4.501998e+000 -2.950124e-001 3.937168e-001
      vertex  -4.507000e+000 -1.316034e-001 4.961729e-001
    endloop
  endfacet
  facet normal -8.343513e-005 -5.312139e-001 8.472377e-001
    outer loop
      vertex  -4.507000e+000 -1.316034e-001 4.961729e-001
      vertex  -4.501998e+000 -2.950124e-001 3.937168e-001
      vertex  -4.502000e+000 -1.270954e-001 4.989999e-001
    endloop
  endfacet
  facet normal 1.250006e-006 -5.312813e-001 8.471954e-001
    outer loop
      vertex  -4.507000e+000 -1.316034e-001 4.961729e-001
      vertex  -4.502000e+000 -1.270954e-001 4.989999e-001
      vertex  -4.697000e+000 -1.316039e-001 4.961729e-001
    endloop
  endfacet
  facet normal 1.266539e-006 -5.312819e-001 8.471951e-001
    outer loop
      vertex  -4.697000e+000 -1.316039e-001 4.961729e-001
      vertex  -4.502000e+000 -1.270954e-001 4.989999e-001
      vertex  -4.702000e+000 -1.270959e-001 4.989999e-001
    endloop
  endfacet
  facet normal -2.686798e-006 1.000000e+000 5.744477e-007
    outer loop
      vertex  -2.034000e+000 7.199424e-002 4.561000e-001
      vertex  -2.034000e+000 7.199431e-002 3.264001e-001
      vertex  -4.502000e+000 7.198761e-002 4.561000e-001
    endloop
  endfacet
  facet normal -2.683779e-006 1.000000e+000 6.318925e-007
    outer loop
      vertex  -4.502000e+000 7.198761e-002 4.561000e-001
      vertex  -2.034000e+000 7.199431e-002 3.264001e-001
      vertex  -4.502000e+000 7.198769e-002 3.264001e-001
    endloop
  endfacet
  facet normal 2.689816e-006 -1.000000e+000 -6.318925e-007
    outer loop
      vertex  -2.034000e+000 -7.200567e-002 3.264000e-001
      vertex  -2.034000e+000 -7.200576e-002 4.560999e-001
      vertex  -4.502000e+000 -7.201231e-002 3.264000e-001
    endloop
  endfacet
  facet normal 2.686798e-006 -1.000000e+000 -5.744477e-007
    outer loop
      vertex  -4.502000e+000 -7.201231e-002 3.264000e-001
      vertex  -2.034000e+000 -7.200576e-002 4.560999e-001
      vertex  -4.502000e+000 -7.201239e-002 4.560999e-001
    endloop
  endfacet
  facet normal -3.494321e-001 4.650440e-008 -9.369617e-001
    outer loop
      vertex  -1.779000e+000 1.599951e-001 2.313001e-001
      vertex  -1.779000e+000 -1.600049e-001 2.312999e-001
      vertex  -2.034000e+000 7.199431e-002 3.264001e-001
    endloop
  endfacet
  facet normal -3.494317e-001 5.817425e-007 -9.369618e-001
    outer loop
      vertex  -2.034000e+000 7.199431e-002 3.264001e-001
      vertex  -1.779000e+000 -1.600049e-001 2.312999e-001
      vertex  -2.034000e+000 -7.200567e-002 3.264000e-001
    endloop
  endfacet
  facet normal 3.494319e-001 -5.817424e-007 9.369618e-001
    outer loop
      vertex  -2.034000e+000 7.199424e-002 4.561000e-001
      vertex  -2.034000e+000 -7.200576e-002 4.560999e-001
      vertex  -1.779000e+000 1.599950e-001 3.610001e-001
    endloop
  endfacet
  facet normal 3.494315e-001 -2.874807e-009 9.369619e-001
    outer loop
      vertex  -1.779000e+000 1.599950e-001 3.610001e-001
      vertex  -2.034000e+000 -7.200576e-002 4.560999e-001
      vertex  -1.779000e+000 -1.600050e-001 3.609999e-001
    endloop
  endfacet
  facet normal -1.000000e+000 -8.945750e-007 -5.173014e-008
    outer loop
      vertex  -1.779000e+000 -2.932629e-001 2.312998e-001
      vertex  -1.779000e+000 -1.675050e-001 3.609999e-001
      vertex  -1.779000e+000 -1.600049e-001 2.312999e-001
    endloop
  endfacet
  facet normal -1.000000e+000 0.000000e+000 0.000000e+000
    outer loop
      vertex  -1.779000e+000 -1.600049e-001 2.312999e-001
      vertex  -1.779000e+000 -1.675050e-001 3.609999e-001
      vertex  -1.779000e+000 -1.600050e-001 3.609999e-001
    endloop
  endfacet
  facet normal -1.732578e-006 7.179314e-001 6.961138e-001
    outer loop
      vertex  7.869996e-001 1.849049e-001 3.430521e-001
      vertex  2.254000e+000 1.675058e-001 3.610001e-001
      vertex  2.022998e+000 8.375056e-001 -3.299995e-001
    endloop
  endfacet
  facet normal -1.925780e-006 7.179236e-001 6.961219e-001
    outer loop
      vertex  2.254000e+000 1.675058e-001 3.610001e-001
      vertex  7.869996e-001 1.849049e-001 3.430521e-001
      vertex  -1.779000e+000 1.674950e-001 3.610001e-001
    endloop
  endfacet
  facet normal -2.101877e-006 7.179315e-001 6.961138e-001
    outer loop
      vertex  -2.368432e-001 8.374996e-001 -3.299995e-001
      vertex  -1.779000e+000 2.932531e-001 2.313002e-001
      vertex  5.769992e-001 3.310884e-001 1.922862e-001
    endloop
  endfacet
  facet normal -2.110430e-006 7.179322e-001 6.961131e-001
    outer loop
      vertex  5.769992e-001 3.310884e-001 1.922862e-001
      vertex  -1.779000e+000 2.932531e-001 2.313002e-001
      vertex  -1.779000e+000 1.674950e-001 3.610001e-001
    endloop
  endfacet
  facet normal -2.044253e-006 7.179317e-001 6.961136e-001
    outer loop
      vertex  5.769992e-001 3.310884e-001 1.922862e-001
      vertex  -1.779000e+000 1.674950e-001 3.610001e-001
      vertex  5.769995e-001 1.849043e-001 3.430521e-001
    endloop
  endfacet
  facet normal -1.986763e-006 7.179279e-001 6.961174e-001
    outer loop
      vertex  5.769995e-001 1.849043e-001 3.430521e-001
      vertex  -1.779000e+000 1.674950e-001 3.610001e-001
      vertex  7.869996e-001 1.849049e-001 3.430521e-001
    endloop
  endfacet
  facet normal -1.912523e-006 7.179316e-001 6.961137e-001
    outer loop
      vertex  -2.368432e-001 8.374996e-001 -3.299995e-001
      vertex  5.769992e-001 3.310884e-001 1.922862e-001
      vertex  2.022998e+000 8.375056e-001 -3.299995e-001
    endloop
  endfacet
  facet normal -2.145846e-006 7.179317e-001 6.961135e-001
    outer loop
      vertex  2.022998e+000 8.375056e-001 -3.299995e-001
      vertex  5.769992e-001 3.310884e-001 1.922862e-001
      vertex  7.869992e-001 3.310889e-001 1.922862e-001
    endloop
  endfacet
  facet normal -1.951914e-006 7.179317e-001 6.961136e-001
    outer loop
      vertex  2.022998e+000 8.375056e-001 -3.299995e-001
      vertex  7.869992e-001 3.310889e-001 1.922862e-001
      vertex  7.869996e-001 1.849049e-001 3.430521e-001
    endloop
  endfacet
  facet normal -1.000000e+000 0.000000e+000 0.000000e+000
    outer loop
      vertex  -1.779000e+000 1.599950e-001 3.610001e-001
      vertex  -1.779000e+000 1.674950e-001 3.610001e-001
      vertex  -1.779000e+000 1.599951e-001 2.313001e-001
    endloop
  endfacet
  facet normal -1.000000e+000 -8.945751e-007 5.172881e-008
    outer loop
      vertex  -1.779000e+000 1.599951e-001 2.313001e-001
      vertex  -1.779000e+000 1.674950e-001 3.610001e-001
      vertex  -1.779000e+000 2.932531e-001 2.313002e-001
    endloop
  endfacet
  facet normal 9.484085e-001 2.616084e-006 -3.170508e-001
    outer loop
      vertex  2.023002e+000 -8.374944e-001 -3.300005e-001
      vertex  2.022998e+000 8.375056e-001 -3.299995e-001
      vertex  2.254000e+000 -1.674942e-001 3.609999e-001
    endloop
  endfacet
  facet normal 9.484080e-001 1.519193e-006 -3.170523e-001
    outer loop
      vertex  2.254000e+000 -1.674942e-001 3.609999e-001
      vertex  2.022998e+000 8.375056e-001 -3.299995e-001
      vertex  2.254000e+000 1.675058e-001 3.610001e-001
    endloop
  endfacet
  facet normal -3.262167e-001 -9.452951e-001 -5.973249e-007
    outer loop
      vertex  -2.034000e+000 -7.200576e-002 4.560999e-001
      vertex  -2.034000e+000 -7.200567e-002 3.264000e-001
      vertex  -1.779000e+000 -1.600050e-001 3.609999e-001
    endloop
  endfacet
  facet normal -3.262167e-001 -9.452950e-001 -7.602309e-007
    outer loop
      vertex  -1.779000e+000 -1.600050e-001 3.609999e-001
      vertex  -2.034000e+000 -7.200567e-002 3.264000e-001
      vertex  -1.779000e+000 -1.600049e-001 2.312999e-001
    endloop
  endfacet
  facet normal -3.262219e-001 9.452932e-001 6.516253e-007
    outer loop
      vertex  -1.779000e+000 1.599950e-001 3.610001e-001
      vertex  -1.779000e+000 1.599951e-001 2.313001e-001
      vertex  -2.034000e+000 7.199424e-002 4.561000e-001
    endloop
  endfacet
  facet normal -3.262220e-001 9.452932e-001 5.430215e-007
    outer loop
      vertex  -2.034000e+000 7.199424e-002 4.561000e-001
      vertex  -1.779000e+000 1.599951e-001 2.313001e-001
      vertex  -2.034000e+000 7.199431e-002 3.264001e-001
    endloop
  endfacet
  facet normal -2.683724e-006 1.000000e+000 6.318925e-007
    outer loop
      vertex  -4.702000e+000 7.198715e-002 3.264001e-001
      vertex  -6.079000e+000 7.198346e-002 3.264001e-001
      vertex  -4.702000e+000 7.198707e-002 4.561000e-001
    endloop
  endfacet
  facet normal -2.683724e-006 1.000000e+000 6.318940e-007
    outer loop
      vertex  -4.702000e+000 7.198707e-002 4.561000e-001
      vertex  -6.079000e+000 7.198346e-002 3.264001e-001
      vertex  -6.079000e+000 7.198337e-002 4.561000e-001
    endloop
  endfacet
  facet normal -1.666309e-012 6.208817e-007 -1.000000e+000
    outer loop
      vertex  -2.034000e+000 7.199431e-002 3.264001e-001
      vertex  -2.034000e+000 -7.200567e-002 3.264000e-001
      vertex  -4.502000e+000 7.198769e-002 3.264001e-001
    endloop
  endfacet
  facet normal -1.669433e-012 6.208817e-007 -1.000000e+000
    outer loop
      vertex  -4.502000e+000 7.198769e-002 3.264001e-001
      vertex  -2.034000e+000 -7.200567e-002 3.264000e-001
      vertex  -4.502000e+000 -7.201231e-002 3.264000e-001
    endloop
  endfacet
  facet normal -1.665332e-012 6.208817e-007 -1.000000e+000
    outer loop
      vertex  -4.502000e+000 7.198769e-002 3.264001e-001
      vertex  -4.502000e+000 -7.201231e-002 3.264000e-001
      vertex  -4.702000e+000 7.198715e-002 3.264001e-001
    endloop
  endfacet
  facet normal -1.665332e-012 6.208817e-007 -1.000000e+000
    outer loop
      vertex  -4.702000e+000 7.198715e-002 3.264001e-001
      vertex  -4.502000e+000 -7.201231e-002 3.264000e-001
      vertex  -4.702000e+000 -7.201284e-002 3.264000e-001
    endloop
  endfacet
  facet normal -1.666276e-012 6.208818e-007 -1.000000e+000
    outer loop
      vertex  -4.702000e+000 7.198715e-002 3.264001e-001
      vertex  -4.702000e+000 -7.201284e-002 3.264000e-001
      vertex  -6.079000e+000 7.198346e-002 3.264001e-001
    endloop
  endfacet
  facet normal -1.666276e-012 6.208818e-007 -1.000000e+000
    outer loop
      vertex  -6.079000e+000 7.198346e-002 3.264001e-001
      vertex  -4.702000e+000 -7.201284e-002 3.264000e-001
      vertex  -6.079000e+000 -7.201654e-002 3.264000e-001
    endloop
  endfacet
  facet normal 2.678314e-006 -1.000000e+000 -6.893373e-007
    outer loop
      vertex  -4.702000e+000 -7.201293e-002 4.560999e-001
      vertex  -6.079000e+000 -7.201662e-002 4.560999e-001
      vertex  -4.702000e+000 -7.201284e-002 3.264000e-001
    endloop
  endfacet
  facet normal 2.683724e-006 -1.000000e+000 -6.318915e-007
    outer loop
      vertex  -4.702000e+000 -7.201284e-002 3.264000e-001
      vertex  -6.079000e+000 -7.201662e-002 4.560999e-001
      vertex  -6.079000e+000 -7.201654e-002 3.264000e-001
    endloop
  endfacet
  facet normal 1.666276e-012 -6.208818e-007 1.000000e+000
    outer loop
      vertex  -6.079000e+000 7.198337e-002 4.561000e-001
      vertex  -6.079000e+000 -7.201662e-002 4.560999e-001
      vertex  -4.702000e+000 7.198707e-002 4.561000e-001
    endloop
  endfacet
  facet normal 1.666276e-012 -6.208818e-007 1.000000e+000
    outer loop
      vertex  -4.702000e+000 7.198707e-002 4.561000e-001
      vertex  -6.079000e+000 -7.201662e-002 4.560999e-001
      vertex  -4.702000e+000 -7.201293e-002 4.560999e-001
    endloop
  endfacet
  facet normal 1.665332e-012 -6.208817e-007 1.000000e+000
    outer loop
      vertex  -4.702000e+000 7.198707e-002 4.561000e-001
      vertex  -4.702000e+000 -7.201293e-002 4.560999e-001
      vertex  -4.502000e+000 7.198761e-002 4.561000e-001
    endloop
  endfacet
  facet normal 1.665332e-012 -6.208817e-007 1.000000e+000
    outer loop
      vertex  -4.502000e+000 7.198761e-002 4.561000e-001
      vertex  -4.702000e+000 -7.201293e-002 4.560999e-001
      vertex  -4.502000e+000 -7.201239e-002 4.560999e-001
    endloop
  endfacet
  facet normal 1.668184e-012 -6.208817e-007 1.000000e+000
    outer loop
      vertex  -4.502000e+000 7.198761e-002 4.561000e-001
      vertex  -4.502000e+000 -7.201239e-002 4.560999e-001
      vertex  -2.034000e+000 7.199424e-002 4.561000e-001
    endloop
  endfacet
  facet normal 1.669433e-012 -6.208817e-007 1.000000e+000
    outer loop
      vertex  -2.034000e+000 7.199424e-002 4.561000e-001
      vertex  -4.502000e+000 -7.201239e-002 4.560999e-001
      vertex  -2.034000e+000 -7.200576e-002 4.560999e-001
    endloop
  endfacet
  facet normal -1.000000e+000 0.000000e+000 0.000000e+000
    outer loop
      vertex  -6.079000e+000 -7.201654e-002 3.264000e-001
      vertex  -6.079000e+000 -7.201662e-002 4.560999e-001
      vertex  -6.079000e+000 7.198346e-002 3.264001e-001
    endloop
  endfacet
  facet normal -1.000000e+000 0.000000e+000 0.000000e+000
    outer loop
      vertex  -6.079000e+000 7.198346e-002 3.264001e-001
      vertex  -6.079000e+000 -7.201662e-002 4.560999e-001
      vertex  -6.079000e+000 7.198337e-002 4.561000e-001
    endloop
  endfacet
  facet normal 6.889991e-007 -2.889890e-001 -9.573324e-001
    outer loop
      vertex  -4.501998e+000 -2.950124e-001 3.937168e-001
      vertex  -4.702000e+000 -2.950128e-001 3.937168e-001
      vertex  -4.502000e+000 -7.201231e-002 3.264000e-001
    endloop
  endfacet
  facet normal 7.643622e-007 -2.889890e-001 -9.573324e-001
    outer loop
      vertex  -4.502000e+000 -7.201231e-002 3.264000e-001
      vertex  -4.702000e+000 -2.950128e-001 3.937168e-001
      vertex  -4.702000e+000 -7.201284e-002 3.264000e-001
    endloop
  endfacet
  facet normal -1.670984e-006 6.144546e-001 7.889521e-001
    outer loop
      vertex  -4.502000e+000 -7.201239e-002 4.560999e-001
      vertex  -4.702000e+000 -7.201293e-002 4.560999e-001
      vertex  -4.502000e+000 -1.270954e-001 4.989999e-001
    endloop
  endfacet
  facet normal -1.464973e-006 6.144552e-001 7.889518e-001
    outer loop
      vertex  -4.502000e+000 -1.270954e-001 4.989999e-001
      vertex  -4.702000e+000 -7.201293e-002 4.560999e-001
      vertex  -4.702000e+000 -1.270959e-001 4.989999e-001
    endloop
  endfacet
  facet normal -1.000000e+000 -2.366242e-006 -7.551563e-007
    outer loop
      vertex  -4.702000e+000 -2.950128e-001 3.937168e-001
      vertex  -4.702000e+000 -1.270959e-001 4.989999e-001
      vertex  -4.702000e+000 -7.201284e-002 3.264000e-001
    endloop
  endfacet
  facet normal -1.000000e+000 0.000000e+000 0.000000e+000
    outer loop
      vertex  -4.702000e+000 -7.201284e-002 3.264000e-001
      vertex  -4.702000e+000 -1.270959e-001 4.989999e-001
      vertex  -4.702000e+000 -7.201293e-002 4.560999e-001
    endloop
  endfacet
  facet normal 1.000000e+000 4.719617e-006 6.059929e-006
    outer loop
      vertex  -4.502000e+000 -1.270954e-001 4.989999e-001
      vertex  -4.501998e+000 -2.950124e-001 3.937168e-001
      vertex  -4.502000e+000 -7.201239e-002 4.560999e-001
    endloop
  endfacet
  facet normal 1.000000e+000 6.414850e-006 3.684996e-012
    outer loop
      vertex  -4.502000e+000 -7.201239e-002 4.560999e-001
      vertex  -4.501998e+000 -2.950124e-001 3.937168e-001
      vertex  -4.502000e+000 -7.201231e-002 3.264000e-001
    endloop
  endfacet
  facet normal 1.419196e-006 -6.144566e-001 7.889506e-001
    outer loop
      vertex  -4.502000e+000 1.270705e-001 4.990001e-001
      vertex  -4.702000e+000 1.270701e-001 4.990001e-001
      vertex  -4.502000e+000 7.198761e-002 4.561000e-001
    endloop
  endfacet
  facet normal 1.648097e-006 -6.144561e-001 7.889510e-001
    outer loop
      vertex  -4.502000e+000 7.198761e-002 4.561000e-001
      vertex  -4.702000e+000 1.270701e-001 4.990001e-001
      vertex  -4.702000e+000 7.198707e-002 4.561000e-001
    endloop
  endfacet
  facet normal -7.751312e-007 2.889902e-001 -9.573320e-001
    outer loop
      vertex  -4.502000e+000 7.198769e-002 3.264001e-001
      vertex  -4.702000e+000 7.198715e-002 3.264001e-001
      vertex  -4.502000e+000 2.949876e-001 3.937172e-001
    endloop
  endfacet
  facet normal -8.181902e-007 2.889903e-001 -9.573320e-001
    outer loop
      vertex  -4.502000e+000 2.949876e-001 3.937172e-001
      vertex  -4.702000e+000 7.198715e-002 3.264001e-001
      vertex  -4.702002e+000 2.949871e-001 3.937172e-001
    endloop
  endfacet
  facet normal -1.000000e+000 -7.098728e-006 2.265462e-006
    outer loop
      vertex  -4.702002e+000 2.949871e-001 3.937172e-001
      vertex  -4.702000e+000 7.198715e-002 3.264001e-001
      vertex  -4.702000e+000 1.270701e-001 4.990001e-001
    endloop
  endfacet
  facet normal -1.000000e+000 0.000000e+000 0.000000e+000
    outer loop
      vertex  -4.702000e+000 1.270701e-001 4.990001e-001
      vertex  -4.702000e+000 7.198715e-002 3.264001e-001
      vertex  -4.702000e+000 7.198707e-002 4.561000e-001
    endloop
  endfacet
  facet normal 1.000000e+000 2.138283e-006 1.351165e-012
    outer loop
      vertex  -4.502000e+000 7.198769e-002 3.264001e-001
      vertex  -4.502000e+000 2.949876e-001 3.937172e-001
      vertex  -4.502000e+000 7.198761e-002 4.561000e-001
    endloop
  endfacet
  facet normal 1.000000e+000 1.573209e-006 -2.019971e-006
    outer loop
      vertex  -4.502000e+000 7.198761e-002 4.561000e-001
      vertex  -4.502000e+000 2.949876e-001 3.937172e-001
      vertex  -4.502000e+000 1.270705e-001 4.990001e-001
    endloop
  endfacet
  facet normal 2.705737e-006 -1.000000e+000 -6.306623e-007
    outer loop
      vertex  -4.507000e+000 -7.201239e-002 4.497619e-001
      vertex  -4.697000e+000 -7.201290e-002 4.497619e-001
      vertex  -4.507000e+000 -7.201231e-002 3.316229e-001
    endloop
  endfacet
  facet normal 2.744950e-006 -1.000000e+000 -5.675959e-007
    outer loop
      vertex  -4.507000e+000 -7.201231e-002 3.316229e-001
      vertex  -4.697000e+000 -7.201290e-002 4.497619e-001
      vertex  -4.697000e+000 -7.201283e-002 3.316229e-001
    endloop
  endfacet
  facet normal 1.662554e-006 -6.144552e-001 -7.889517e-001
    outer loop
      vertex  -4.507000e+000 -7.201239e-002 4.497619e-001
      vertex  -4.507000e+000 -1.316034e-001 4.961729e-001
      vertex  -4.697000e+000 -7.201290e-002 4.497619e-001
    endloop
  endfacet
  facet normal 1.443930e-006 -6.144557e-001 -7.889513e-001
    outer loop
      vertex  -4.697000e+000 -7.201290e-002 4.497619e-001
      vertex  -4.507000e+000 -1.316034e-001 4.961729e-001
      vertex  -4.697000e+000 -1.316039e-001 4.961729e-001
    endloop
  endfacet
  facet normal -7.932548e-007 2.889870e-001 9.573330e-001
    outer loop
      vertex  -4.697000e+000 -7.201283e-002 3.316229e-001
      vertex  -4.697000e+000 -2.893899e-001 3.972418e-001
      vertex  -4.507000e+000 -7.201231e-002 3.316229e-001
    endloop
  endfacet
  facet normal -8.634826e-007 2.889870e-001 9.573330e-001
    outer loop
      vertex  -4.507000e+000 -7.201231e-002 3.316229e-001
      vertex  -4.697000e+000 -2.893899e-001 3.972418e-001
      vertex  -4.506999e+000 -2.893893e-001 3.972418e-001
    endloop
  endfacet
  facet normal -1.000000e+000 -6.580786e-006 -4.150253e-012
    outer loop
      vertex  -4.507000e+000 -7.201231e-002 3.316229e-001
      vertex  -4.506999e+000 -2.893893e-001 3.972418e-001
      vertex  -4.507000e+000 -7.201239e-002 4.497619e-001
    endloop
  endfacet
  facet normal -1.000000e+000 -5.022652e-006 -6.449013e-006
    outer loop
      vertex  -4.507000e+000 -7.201239e-002 4.497619e-001
      vertex  -4.506999e+000 -2.893893e-001 3.972418e-001
      vertex  -4.507000e+000 -1.316034e-001 4.961729e-001
    endloop
  endfacet
  facet normal 1.000000e+000 2.193595e-006 1.245076e-012
    outer loop
      vertex  -4.697000e+000 -7.201283e-002 3.316229e-001
      vertex  -4.697000e+000 -7.201290e-002 4.497619e-001
      vertex  -4.697000e+000 -2.893899e-001 3.972418e-001
    endloop
  endfacet
  facet normal 1.000000e+000 1.674217e-006 2.149668e-006
    outer loop
      vertex  -4.697000e+000 -2.893899e-001 3.972418e-001
      vertex  -4.697000e+000 -7.201290e-002 4.497619e-001
      vertex  -4.697000e+000 -1.316039e-001 4.961729e-001
    endloop
  endfacet
  facet normal 7.819262e-007 -2.889883e-001 9.573326e-001
    outer loop
      vertex  -4.507000e+000 7.198768e-002 3.316230e-001
      vertex  -4.507000e+000 2.893646e-001 3.972422e-001
      vertex  -4.697000e+000 7.198717e-002 3.316230e-001
    endloop
  endfacet
  facet normal 8.634829e-007 -2.889884e-001 9.573326e-001
    outer loop
      vertex  -4.697000e+000 7.198717e-002 3.316230e-001
      vertex  -4.507000e+000 2.893646e-001 3.972422e-001
      vertex  -4.697001e+000 2.893641e-001 3.972422e-001
    endloop
  endfacet
  facet normal -1.662558e-006 6.144566e-001 -7.889506e-001
    outer loop
      vertex  -4.697000e+000 7.198709e-002 4.497620e-001
      vertex  -4.697000e+000 1.315781e-001 4.961731e-001
      vertex  -4.507000e+000 7.198761e-002 4.497620e-001
    endloop
  endfacet
  facet normal -1.443929e-006 6.144570e-001 -7.889503e-001
    outer loop
      vertex  -4.507000e+000 7.198761e-002 4.497620e-001
      vertex  -4.697000e+000 1.315781e-001 4.961731e-001
      vertex  -4.507000e+000 1.315785e-001 4.961731e-001
    endloop
  endfacet
  facet normal -2.705737e-006 1.000000e+000 6.306623e-007
    outer loop
      vertex  -4.507000e+000 7.198768e-002 3.316230e-001
      vertex  -4.697000e+000 7.198717e-002 3.316230e-001
      vertex  -4.507000e+000 7.198761e-002 4.497620e-001
    endloop
  endfacet
  facet normal -2.705737e-006 1.000000e+000 6.306626e-007
    outer loop
      vertex  -4.507000e+000 7.198761e-002 4.497620e-001
      vertex  -4.697000e+000 7.198717e-002 3.316230e-001
      vertex  -4.697000e+000 7.198709e-002 4.497620e-001
    endloop
  endfacet
  facet normal -1.000000e+000 0.000000e+000 0.000000e+000
    outer loop
      vertex  -4.507000e+000 7.198761e-002 4.497620e-001
      vertex  -4.507000e+000 1.315785e-001 4.961731e-001
      vertex  -4.507000e+000 7.198768e-002 3.316230e-001
    endloop
  endfacet
  facet normal -1.000000e+000 -2.462832e-006 8.919003e-007
    outer loop
      vertex  -4.507000e+000 7.198768e-002 3.316230e-001
      vertex  -4.507000e+000 1.315785e-001 4.961731e-001
      vertex  -4.507000e+000 2.893646e-001 3.972422e-001
    endloop
  endfacet
  facet normal 1.000000e+000 -0.000000e+000 0.000000e+000
    outer loop
      vertex  -4.697000e+000 7.198709e-002 4.497620e-001
      vertex  -4.697000e+000 7.198717e-002 3.316230e-001
      vertex  -4.697000e+000 1.315781e-001 4.961731e-001
    endloop
  endfacet
  facet normal 1.000000e+000 7.388499e-006 -2.675705e-006
    outer loop
      vertex  -4.697000e+000 1.315781e-001 4.961731e-001
      vertex  -4.697000e+000 7.198717e-002 3.316230e-001
      vertex  -4.697001e+000 2.893641e-001 3.972422e-001
    endloop
  endfacet
  facet normal 1.916054e-006 -7.179354e-001 -6.961097e-001
    outer loop
      vertex  -4.016920e-001 7.375362e-001 -2.699995e-001
      vertex  -2.368432e-001 7.957126e-001 -3.299995e-001
      vertex  1.987998e+000 7.375426e-001 -2.699995e-001
    endloop
  endfacet
  facet normal 1.942168e-006 -7.179349e-001 -6.961102e-001
    outer loop
      vertex  1.987998e+000 7.375426e-001 -2.699995e-001
      vertex  -2.368432e-001 7.957126e-001 -3.299995e-001
      vertex  1.987998e+000 7.957186e-001 -3.299995e-001
    endloop
  endfacet
  facet normal -1.889597e-012 7.060812e-007 -1.000000e+000
    outer loop
      vertex  -3.970000e-001 1.999911e-002 -2.700000e-001
      vertex  -4.016920e-001 7.375362e-001 -2.699995e-001
      vertex  1.987998e+000 7.375426e-001 -2.699995e-001
    endloop
  endfacet
  facet normal -6.020412e-006 6.667142e-007 -1.000000e+000
    outer loop
      vertex  -4.016920e-001 7.375362e-001 -2.699995e-001
      vertex  -3.970000e-001 1.999911e-002 -2.700000e-001
      vertex  -4.016880e-001 -7.375379e-001 -2.700005e-001
    endloop
  endfacet
  facet normal 1.016907e-004 1.515311e-010 -1.000000e+000
    outer loop
      vertex  -4.016880e-001 -7.375379e-001 -2.700005e-001
      vertex  -3.970000e-001 1.999911e-002 -2.700000e-001
      vertex  -3.970000e-001 -2.000089e-002 -2.700000e-001
    endloop
  endfacet
  facet normal -1.773569e-012 6.645471e-007 -1.000000e+000
    outer loop
      vertex  -4.016880e-001 -7.375379e-001 -2.700005e-001
      vertex  -3.970000e-001 -2.000089e-002 -2.700000e-001
      vertex  1.988002e+000 -7.375315e-001 -2.700005e-001
    endloop
  endfacet
  facet normal -9.902543e-013 6.645478e-007 -1.000000e+000
    outer loop
      vertex  1.988002e+000 -7.375315e-001 -2.700005e-001
      vertex  -3.970000e-001 -2.000089e-002 -2.700000e-001
      vertex  -3.570000e-001 -2.000079e-002 -2.700000e-001
    endloop
  endfacet
  facet normal 6.662533e-010 6.667303e-007 -1.000000e+000
    outer loop
      vertex  1.988002e+000 -7.375315e-001 -2.700005e-001
      vertex  -3.570000e-001 -2.000079e-002 -2.700000e-001
      vertex  1.987998e+000 7.375426e-001 -2.699995e-001
    endloop
  endfacet
  facet normal 2.160509e-007 1.212012e-012 -1.000000e+000
    outer loop
      vertex  1.987998e+000 7.375426e-001 -2.699995e-001
      vertex  -3.570000e-001 -2.000079e-002 -2.700000e-001
      vertex  -3.570000e-001 1.999921e-002 -2.700000e-001
    endloop
  endfacet
  facet normal -1.980509e-012 7.060830e-007 -1.000000e+000
    outer loop
      vertex  1.987998e+000 7.375426e-001 -2.699995e-001
      vertex  -3.570000e-001 1.999921e-002 -2.700000e-001
      vertex  -3.970000e-001 1.999911e-002 -2.700000e-001
    endloop
  endfacet
  facet normal -1.916055e-006 7.179360e-001 -6.961091e-001
    outer loop
      vertex  1.988002e+000 -7.375315e-001 -2.700005e-001
      vertex  1.988002e+000 -7.957074e-001 -3.300005e-001
      vertex  -4.016880e-001 -7.375379e-001 -2.700005e-001
    endloop
  endfacet
  facet normal -1.942170e-006 7.179356e-001 -6.961096e-001
    outer loop
      vertex  -4.016880e-001 -7.375379e-001 -2.700005e-001
      vertex  1.988002e+000 -7.957074e-001 -3.300005e-001
      vertex  -2.368388e-001 -7.957134e-001 -3.300005e-001
    endloop
  endfacet
  facet normal -1.000000e+000 -2.666922e-006 5.990196e-007
    outer loop
      vertex  1.988002e+000 -7.375315e-001 -2.700005e-001
      vertex  1.987998e+000 7.375426e-001 -2.699995e-001
      vertex  1.988002e+000 -7.957074e-001 -3.300005e-001
    endloop
  endfacet
  facet normal -1.000000e+000 -2.621752e-006 -5.552325e-007
    outer loop
      vertex  1.988002e+000 -7.957074e-001 -3.300005e-001
      vertex  1.987998e+000 7.375426e-001 -2.699995e-001
      vertex  1.987998e+000 7.957186e-001 -3.299995e-001
    endloop
  endfacet
  facet normal 1.000000e+000 1.490116e-006 9.616105e-013
    outer loop
      vertex  -3.570000e-001 -2.000079e-002 -2.700000e-001
      vertex  -3.570000e-001 -2.000038e-002 -9.050000e-001
      vertex  -3.570000e-001 1.999921e-002 -2.700000e-001
    endloop
  endfacet
  facet normal 1.000000e+000 1.490116e-006 9.616105e-013
    outer loop
      vertex  -3.570000e-001 1.999921e-002 -2.700000e-001
      vertex  -3.570000e-001 -2.000038e-002 -9.050000e-001
      vertex  -3.570000e-001 1.999962e-002 -9.050000e-001
    endloop
  endfacet
  facet normal 0.000000e+000 0.000000e+000 -1.000000e+000
    outer loop
      vertex  -3.970000e-001 -2.000048e-002 -9.050000e-001
      vertex  -3.970000e-001 1.999952e-002 -9.050000e-001
      vertex  -3.570000e-001 -2.000038e-002 -9.050000e-001
    endloop
  endfacet
  facet normal 0.000000e+000 0.000000e+000 -1.000000e+000
    outer loop
      vertex  -3.570000e-001 -2.000038e-002 -9.050000e-001
      vertex  -3.970000e-001 1.999952e-002 -9.050000e-001
      vertex  -3.570000e-001 1.999962e-002 -9.050000e-001
    endloop
  endfacet
  facet normal -1.000000e+000 -1.490116e-006 -9.616105e-013
    outer loop
      vertex  -3.970000e-001 1.999911e-002 -2.700000e-001
      vertex  -3.970000e-001 1.999952e-002 -9.050000e-001
      vertex  -3.970000e-001 -2.000089e-002 -2.700000e-001
    endloop
  endfacet
  facet normal -1.000000e+000 -1.490116e-006 -9.659815e-013
    outer loop
      vertex  -3.970000e-001 -2.000089e-002 -2.700000e-001
      vertex  -3.970000e-001 1.999952e-002 -9.050000e-001
      vertex  -3.970000e-001 -2.000048e-002 -9.050000e-001
    endloop
  endfacet
  facet normal -2.607702e-006 1.000000e+000 6.453259e-007
    outer loop
      vertex  -3.570000e-001 1.999921e-002 -2.700000e-001
      vertex  -3.570000e-001 1.999962e-002 -9.050000e-001
      vertex  -3.970000e-001 1.999911e-002 -2.700000e-001
    endloop
  endfacet
  facet normal -2.607702e-006 1.000000e+000 6.453259e-007
    outer loop
      vertex  -3.970000e-001 1.999911e-002 -2.700000e-001
      vertex  -3.570000e-001 1.999962e-002 -9.050000e-001
      vertex  -3.970000e-001 1.999952e-002 -9.050000e-001
    endloop
  endfacet
  facet normal 2.561136e-006 -1.000000e+000 -6.482592e-007
    outer loop
      vertex  -3.970000e-001 -2.000048e-002 -9.050000e-001
      vertex  -3.570000e-001 -2.000038e-002 -9.050000e-001
      vertex  -3.970000e-001 -2.000089e-002 -2.700000e-001
    endloop
  endfacet
  facet normal 2.607702e-006 -1.000000e+000 -6.453259e-007
    outer loop
      vertex  -3.970000e-001 -2.000089e-002 -2.700000e-001
      vertex  -3.570000e-001 -2.000038e-002 -9.050000e-001
      vertex  -3.570000e-001 -2.000079e-002 -2.700000e-001
    endloop
  endfacet
  facet normal 1.000000e+000 2.607703e-006 1.699959e-012
    outer loop
      vertex  -9.520002e-001 7.999748e-002 -6.970295e-002
      vertex  -9.519998e-001 -8.000252e-002 -6.970305e-002
      vertex  -9.520002e-001 7.999766e-002 -3.440000e-001
    endloop
  endfacet
  facet normal 1.000000e+000 2.607703e-006 1.619008e-012
    outer loop
      vertex  -9.520002e-001 7.999766e-002 -3.440000e-001
      vertex  -9.519998e-001 -8.000252e-002 -6.970305e-002
      vertex  -9.519998e-001 -8.000235e-002 -3.440001e-001
    endloop
  endfacet
  facet normal -1.000000e+000 -1.490116e-006 -9.789372e-013
    outer loop
      vertex  -1.102000e+000 -8.000296e-002 -1.510805e-002
      vertex  -1.102000e+000 7.999705e-002 -1.510795e-002
      vertex  -1.102000e+000 -8.000274e-002 -3.440001e-001
    endloop
  endfacet
  facet normal -1.000000e+000 -1.490116e-006 -9.451808e-013
    outer loop
      vertex  -1.102000e+000 -8.000274e-002 -3.440001e-001
      vertex  -1.102000e+000 7.999705e-002 -1.510795e-002
      vertex  -1.102000e+000 7.999726e-002 -3.440000e-001
    endloop
  endfacet
  facet normal -2.650029e-006 1.000000e+000 6.343001e-007
    outer loop
      vertex  -1.102000e+000 7.999705e-002 -1.510795e-002
      vertex  -9.520002e-001 7.999748e-002 -6.970295e-002
      vertex  -1.102000e+000 7.999726e-002 -3.440000e-001
    endloop
  endfacet
  facet normal -2.682211e-006 1.000000e+000 6.518989e-007
    outer loop
      vertex  -1.102000e+000 7.999726e-002 -3.440000e-001
      vertex  -9.520002e-001 7.999748e-002 -6.970295e-002
      vertex  -9.520002e-001 7.999766e-002 -3.440000e-001
    endloop
  endfacet
  facet normal 2.632537e-006 -1.000000e+000 -6.518989e-007
    outer loop
      vertex  -9.519998e-001 -8.000235e-002 -3.440001e-001
      vertex  -9.519998e-001 -8.000252e-002 -6.970305e-002
      vertex  -1.102000e+000 -8.000274e-002 -3.440001e-001
    endloop
  endfacet
  facet normal 2.641780e-006 -1.000000e+000 -6.569537e-007
    outer loop
      vertex  -1.102000e+000 -8.000274e-002 -3.440001e-001
      vertex  -9.519998e-001 -8.000252e-002 -6.970305e-002
      vertex  -1.102000e+000 -8.000296e-002 -1.510805e-002
    endloop
  endfacet
  facet normal -1.363432e-011 4.967051e-006 -1.000000e+000
    outer loop
      vertex  -9.700000e-001 -6.200238e-002 -3.440000e-001
      vertex  -9.519998e-001 -8.000235e-002 -3.440001e-001
      vertex  -1.084000e+000 -6.200270e-002 -3.440000e-001
    endloop
  endfacet
  facet normal -1.307595e-011 4.967055e-006 -1.000000e+000
    outer loop
      vertex  -1.084000e+000 -6.200270e-002 -3.440000e-001
      vertex  -9.519998e-001 -8.000235e-002 -3.440001e-001
      vertex  -1.102000e+000 -8.000274e-002 -3.440001e-001
    endloop
  endfacet
  facet normal 4.967043e-006 9.550285e-012 -1.000000e+000
    outer loop
      vertex  -1.084000e+000 -6.200270e-002 -3.440000e-001
      vertex  -1.102000e+000 -8.000274e-002 -3.440001e-001
      vertex  -1.084000e+000 6.199730e-002 -3.440000e-001
    endloop
  endfacet
  facet normal 5.587927e-007 5.587944e-007 -1.000000e+000
    outer loop
      vertex  -1.084000e+000 6.199730e-002 -3.440000e-001
      vertex  -1.102000e+000 -8.000274e-002 -3.440001e-001
      vertex  -1.102000e+000 7.999726e-002 -3.440000e-001
    endloop
  endfacet
  facet normal 0.000000e+000 0.000000e+000 -1.000000e+000
    outer loop
      vertex  -1.084000e+000 6.199730e-002 -3.440000e-001
      vertex  -1.102000e+000 7.999726e-002 -3.440000e-001
      vertex  -9.700001e-001 6.199761e-002 -3.440000e-001
    endloop
  endfacet
  facet normal 0.000000e+000 0.000000e+000 -1.000000e+000
    outer loop
      vertex  -9.700001e-001 6.199761e-002 -3.440000e-001
      vertex  -1.102000e+000 7.999726e-002 -3.440000e-001
      vertex  -9.520002e-001 7.999766e-002 -3.440000e-001
    endloop
  endfacet
  facet normal 0.000000e+000 0.000000e+000 -1.000000e+000
    outer loop
      vertex  -9.700001e-001 6.199761e-002 -3.440000e-001
      vertex  -9.520002e-001 7.999766e-002 -3.440000e-001
      vertex  -9.700000e-001 -6.200238e-002 -3.440000e-001
    endloop
  endfacet
  facet normal -4.408228e-006 5.587820e-007 -1.000000e+000
    outer loop
      vertex  -9.700000e-001 -6.200238e-002 -3.440000e-001
      vertex  -9.520002e-001 7.999766e-002 -3.440000e-001
      vertex  -9.519998e-001 -8.000235e-002 -3.440001e-001
    endloop
  endfacet
  facet normal -1.000000e+000 -1.922730e-006 -1.253478e-012
    outer loop
      vertex  -1.084000e+000 -6.200270e-002 -3.440000e-001
      vertex  -1.084000e+000 6.199730e-002 -3.440000e-001
      vertex  -1.084000e+000 -6.200262e-002 -4.640000e-001
    endloop
  endfacet
  facet normal -1.000000e+000 -1.922730e-006 -1.193788e-012
    outer loop
      vertex  -1.084000e+000 -6.200262e-002 -4.640000e-001
      vertex  -1.084000e+000 6.199730e-002 -3.440000e-001
      vertex  -1.084000e+000 6.199738e-002 -4.640000e-001
    endloop
  endfacet
  facet normal 2.744953e-006 -1.000000e+000 -6.519259e-007
    outer loop
      vertex  -9.700000e-001 -6.200238e-002 -3.440000e-001
      vertex  -1.084000e+000 -6.200270e-002 -3.440000e-001
      vertex  -9.700000e-001 -6.200230e-002 -4.640000e-001
    endloop
  endfacet
  facet normal 2.744953e-006 -1.000000e+000 -6.519260e-007
    outer loop
      vertex  -9.700000e-001 -6.200230e-002 -4.640000e-001
      vertex  -1.084000e+000 -6.200270e-002 -3.440000e-001
      vertex  -1.084000e+000 -6.200262e-002 -4.640000e-001
    endloop
  endfacet
  facet normal 1.000000e+000 1.442048e-006 9.401085e-013
    outer loop
      vertex  -9.700001e-001 6.199761e-002 -3.440000e-001
      vertex  -9.700000e-001 -6.200238e-002 -3.440000e-001
      vertex  -9.700001e-001 6.199769e-002 -4.640000e-001
    endloop
  endfacet
  facet normal 1.000000e+000 1.442048e-006 9.550309e-013
    outer loop
      vertex  -9.700001e-001 6.199769e-002 -4.640000e-001
      vertex  -9.700000e-001 -6.200238e-002 -3.440000e-001
      vertex  -9.700000e-001 -6.200230e-002 -4.640000e-001
    endloop
  endfacet
  facet normal -2.679596e-006 1.000000e+000 6.829700e-007
    outer loop
      vertex  -1.084000e+000 6.199730e-002 -3.440000e-001
      vertex  -9.700001e-001 6.199761e-002 -3.440000e-001
      vertex  -1.084000e+000 6.199738e-002 -4.640000e-001
    endloop
  endfacet
  facet normal -2.646918e-006 1.000000e+000 6.519260e-007
    outer loop
      vertex  -1.084000e+000 6.199738e-002 -4.640000e-001
      vertex  -9.700001e-001 6.199761e-002 -3.440000e-001
      vertex  -9.700001e-001 6.199769e-002 -4.640000e-001
    endloop
  endfacet
  facet normal 0.000000e+000 0.000000e+000 -1.000000e+000
    outer loop
      vertex  -1.084000e+000 6.199738e-002 -4.640000e-001
      vertex  -9.700001e-001 6.199769e-002 -4.640000e-001
      vertex  -1.084000e+000 -6.200262e-002 -4.640000e-001
    endloop
  endfacet
  facet normal 0.000000e+000 0.000000e+000 -1.000000e+000
    outer loop
      vertex  -1.084000e+000 -6.200262e-002 -4.640000e-001
      vertex  -9.700001e-001 6.199769e-002 -4.640000e-001
      vertex  -9.700000e-001 -6.200230e-002 -4.640000e-001
    endloop
  endfacet
  facet normal -1.000000e+000 -1.810969e-006 1.011505e-006
    outer loop
      vertex  7.869992e-001 2.592950e-001 1.226752e-001
      vertex  7.869996e-001 1.131120e-001 2.734401e-001
      vertex  7.869992e-001 3.310889e-001 1.922862e-001
    endloop
  endfacet
  facet normal -1.000000e+000 -1.810980e-006 1.011476e-006
    outer loop
      vertex  7.869992e-001 3.310889e-001 1.922862e-001
      vertex  7.869996e-001 1.131120e-001 2.734401e-001
      vertex  7.869996e-001 1.849049e-001 3.430521e-001
    endloop
  endfacet
  facet normal -1.926408e-006 6.961182e-001 -7.179272e-001
    outer loop
      vertex  7.869996e-001 1.131120e-001 2.734401e-001
      vertex  5.769996e-001 1.131114e-001 2.734401e-001
      vertex  7.869996e-001 1.849049e-001 3.430521e-001
    endloop
  endfacet
  facet normal -1.926408e-006 6.961182e-001 -7.179272e-001
    outer loop
      vertex  7.869996e-001 1.849049e-001 3.430521e-001
      vertex  5.769996e-001 1.131114e-001 2.734401e-001
      vertex  5.769995e-001 1.849043e-001 3.430521e-001
    endloop
  endfacet
  facet normal 1.000000e+000 1.218245e-006 -4.001710e-007
    outer loop
      vertex  5.769996e-001 1.131114e-001 2.734401e-001
      vertex  5.769994e-001 2.592945e-001 1.226752e-001
      vertex  5.769995e-001 1.849043e-001 3.430521e-001
    endloop
  endfacet
  facet normal 1.000000e+000 2.469222e-006 2.210743e-008
    outer loop
      vertex  5.769995e-001 1.849043e-001 3.430521e-001
      vertex  5.769994e-001 2.592945e-001 1.226752e-001
      vertex  5.769992e-001 3.310884e-001 1.922862e-001
    endloop
  endfacet
  facet normal 1.876988e-006 -6.961082e-001 7.179370e-001
    outer loop
      vertex  5.769994e-001 2.592945e-001 1.226752e-001
      vertex  7.869992e-001 2.592950e-001 1.226752e-001
      vertex  5.769992e-001 3.310884e-001 1.922862e-001
    endloop
  endfacet
  facet normal 1.876987e-006 -6.961081e-001 7.179370e-001
    outer loop
      vertex  5.769992e-001 3.310884e-001 1.922862e-001
      vertex  7.869992e-001 2.592950e-001 1.226752e-001
      vertex  7.869992e-001 3.310889e-001 1.922862e-001
    endloop
  endfacet
  facet normal -1.935833e-006 7.179317e-001 6.961136e-001
    outer loop
      vertex  5.769994e-001 2.592945e-001 1.226752e-001
      vertex  5.769996e-001 1.131114e-001 2.734401e-001
      vertex  7.869992e-001 2.592950e-001 1.226752e-001
    endloop
  endfacet
  facet normal -1.985142e-006 7.179317e-001 6.961135e-001
    outer loop
      vertex  7.869992e-001 2.592950e-001 1.226752e-001
      vertex  5.769996e-001 1.131114e-001 2.734401e-001
      vertex  7.869996e-001 1.131120e-001 2.734401e-001
    endloop
  endfacet
  facet normal -1.000000e+000 -1.810987e-006 -1.011488e-006
    outer loop
      vertex  7.870004e-001 -1.131080e-001 2.734399e-001
      vertex  7.870008e-001 -2.592910e-001 1.226748e-001
      vertex  7.870004e-001 -1.849011e-001 3.430519e-001
    endloop
  endfacet
  facet normal -1.000000e+000 -1.810958e-006 -1.011498e-006
    outer loop
      vertex  7.870004e-001 -1.849011e-001 3.430519e-001
      vertex  7.870008e-001 -2.592910e-001 1.226748e-001
      vertex  7.870008e-001 -3.310851e-001 1.922858e-001
    endloop
  endfacet
  facet normal -1.876983e-006 6.961071e-001 7.179379e-001
    outer loop
      vertex  7.870008e-001 -2.592910e-001 1.226748e-001
      vertex  5.770007e-001 -2.592915e-001 1.226748e-001
      vertex  7.870008e-001 -3.310851e-001 1.922858e-001
    endloop
  endfacet
  facet normal -1.580619e-006 6.961076e-001 7.179375e-001
    outer loop
      vertex  7.870008e-001 -3.310851e-001 1.922858e-001
      vertex  5.770007e-001 -2.592915e-001 1.226748e-001
      vertex  5.770008e-001 -3.310855e-001 1.922858e-001
    endloop
  endfacet
  facet normal 1.000000e+000 1.613390e-006 8.077324e-007
    outer loop
      vertex  5.770007e-001 -2.592915e-001 1.226748e-001
      vertex  5.770004e-001 -1.131086e-001 2.734399e-001
      vertex  5.770008e-001 -3.310855e-001 1.922858e-001
    endloop
  endfacet
  facet normal 1.000000e+000 2.074079e-006 -4.296614e-007
    outer loop
      vertex  5.770008e-001 -3.310855e-001 1.922858e-001
      vertex  5.770004e-001 -1.131086e-001 2.734399e-001
      vertex  5.770006e-001 -1.849016e-001 3.430519e-001
    endloop
  endfacet
  facet normal 1.951105e-006 -6.961177e-001 -7.179276e-001
    outer loop
      vertex  5.770004e-001 -1.131086e-001 2.734399e-001
      vertex  7.870004e-001 -1.131080e-001 2.734399e-001
      vertex  5.770006e-001 -1.849016e-001 3.430519e-001
    endloop
  endfacet
  facet normal 1.580642e-006 -6.961172e-001 -7.179282e-001
    outer loop
      vertex  5.770006e-001 -1.849016e-001 3.430519e-001
      vertex  7.870004e-001 -1.131080e-001 2.734399e-001
      vertex  7.870004e-001 -1.849011e-001 3.430519e-001
    endloop
  endfacet
  facet normal 2.012249e-006 -7.179327e-001 6.961125e-001
    outer loop
      vertex  5.770004e-001 -1.131086e-001 2.734399e-001
      vertex  5.770007e-001 -2.592915e-001 1.226748e-001
      vertex  7.870004e-001 -1.131080e-001 2.734399e-001
    endloop
  endfacet
  facet normal 1.942904e-006 -7.179326e-001 6.961126e-001
    outer loop
      vertex  7.870004e-001 -1.131080e-001 2.734399e-001
      vertex  5.770007e-001 -2.592915e-001 1.226748e-001
      vertex  7.870008e-001 -2.592910e-001 1.226748e-001
    endloop
  endfacet
  facet normal -1.000000e+000 -1.513769e-006 -0.000000e+000
    outer loop
      vertex  1.914000e+000 -1.574951e-001 3.959999e-001
      vertex  1.914000e+000 1.575049e-001 3.960001e-001
      vertex  1.914000e+000 -1.574951e-001 3.609999e-001
    endloop
  endfacet
  facet normal -1.000000e+000 -1.513769e-006 0.000000e+000
    outer loop
      vertex  1.914000e+000 -1.574951e-001 3.609999e-001
      vertex  1.914000e+000 1.575049e-001 3.960001e-001
      vertex  1.914000e+000 1.575049e-001 3.610001e-001
    endloop
  endfacet
  facet normal 2.601789e-006 -1.000000e+000 -2.980232e-006
    outer loop
      vertex  2.229000e+000 -1.574943e-001 3.959999e-001
      vertex  1.914000e+000 -1.574951e-001 3.959999e-001
      vertex  2.229000e+000 -1.574942e-001 3.609999e-001
    endloop
  endfacet
  facet normal 2.932926e-006 -1.000000e+000 0.000000e+000
    outer loop
      vertex  2.229000e+000 -1.574942e-001 3.609999e-001
      vertex  1.914000e+000 -1.574951e-001 3.959999e-001
      vertex  1.914000e+000 -1.574951e-001 3.609999e-001
    endloop
  endfacet
  facet normal 1.000000e+000 1.513769e-006 4.511383e-012
    outer loop
      vertex  2.229000e+000 1.575057e-001 3.960001e-001
      vertex  2.229000e+000 -1.574943e-001 3.959999e-001
      vertex  2.229000e+000 1.575058e-001 3.610001e-001
    endloop
  endfacet
  facet normal 1.000000e+000 1.513769e-006 5.155866e-012
    outer loop
      vertex  2.229000e+000 1.575058e-001 3.610001e-001
      vertex  2.229000e+000 -1.574943e-001 3.959999e-001
      vertex  2.229000e+000 -1.574942e-001 3.609999e-001
    endloop
  endfacet
  facet normal -2.601789e-006 1.000000e+000 0.000000e+000
    outer loop
      vertex  1.914000e+000 1.575049e-001 3.960001e-001
      vertex  2.229000e+000 1.575057e-001 3.960001e-001
      vertex  1.914000e+000 1.575049e-001 3.610001e-001
    endloop
  endfacet
  facet normal -2.932926e-006 1.000000e+000 2.980232e-006
    outer loop
      vertex  1.914000e+000 1.575049e-001 3.610001e-001
      vertex  2.229000e+000 1.575057e-001 3.960001e-001
      vertex  2.229000e+000 1.575058e-001 3.610001e-001
    endloop
  endfacet
  facet normal -2.834856e-006 1.000000e+000 0.000000e+000
    outer loop
      vertex  2.174000e+000 1.025056e-001 3.610001e-001
      vertex  1.969000e+000 1.025050e-001 3.610001e-001
      vertex  2.174000e+000 1.025056e-001 3.960001e-001
    endloop
  endfacet
  facet normal -2.834856e-006 1.000000e+000 0.000000e+000
    outer loop
      vertex  2.174000e+000 1.025056e-001 3.960001e-001
      vertex  1.969000e+000 1.025050e-001 3.610001e-001
      vertex  1.969000e+000 1.025050e-001 3.960001e-001
    endloop
  endfacet
  facet normal -1.000000e+000 -1.163017e-006 0.000000e+000
    outer loop
      vertex  1.969000e+000 1.025050e-001 3.610001e-001
      vertex  1.969000e+000 -1.024950e-001 3.609999e-001
      vertex  1.969000e+000 1.025050e-001 3.960001e-001
    endloop
  endfacet
  facet normal -1.000000e+000 -1.163017e-006 0.000000e+000
    outer loop
      vertex  1.969000e+000 1.025050e-001 3.960001e-001
      vertex  1.969000e+000 -1.024950e-001 3.609999e-001
      vertex  1.969000e+000 -1.024950e-001 3.959999e-001
    endloop
  endfacet
  facet normal 2.798508e-006 -1.000000e+000 0.000000e+000
    outer loop
      vertex  1.969000e+000 -1.024950e-001 3.609999e-001
      vertex  2.174000e+000 -1.024944e-001 3.609999e-001
      vertex  1.969000e+000 -1.024950e-001 3.959999e-001
    endloop
  endfacet
  facet normal 2.798508e-006 -1.000000e+000 0.000000e+000
    outer loop
      vertex  1.969000e+000 -1.024950e-001 3.959999e-001
      vertex  2.174000e+000 -1.024944e-001 3.609999e-001
      vertex  2.174000e+000 -1.024944e-001 3.959999e-001
    endloop
  endfacet
  facet normal -1.000000e+000 -1.563400e-006 -4.659297e-012
    outer loop
      vertex  2.224000e+000 1.525058e-001 3.610001e-001
      vertex  2.224000e+000 -1.524942e-001 3.609999e-001
      vertex  2.224000e+000 1.525057e-001 3.960001e-001
    endloop
  endfacet
  facet normal -1.000000e+000 -1.563400e-006 -5.324911e-012
    outer loop
      vertex  2.224000e+000 1.525057e-001 3.960001e-001
      vertex  2.224000e+000 -1.524942e-001 3.609999e-001
      vertex  2.224000e+000 -1.524943e-001 3.959999e-001
    endloop
  endfacet
  facet normal -2.931377e-006 1.000000e+000 2.980233e-006
    outer loop
      vertex  2.224000e+000 -1.524942e-001 3.609999e-001
      vertex  1.919000e+000 -1.524951e-001 3.609999e-001
      vertex  2.224000e+000 -1.524943e-001 3.959999e-001
    endloop
  endfacet
  facet normal -2.589383e-006 1.000000e+000 0.000000e+000
    outer loop
      vertex  2.224000e+000 -1.524943e-001 3.959999e-001
      vertex  1.919000e+000 -1.524951e-001 3.609999e-001
      vertex  1.919000e+000 -1.524951e-001 3.959999e-001
    endloop
  endfacet
  facet normal 1.000000e+000 1.563400e-006 -0.000000e+000
    outer loop
      vertex  1.919000e+000 -1.524951e-001 3.609999e-001
      vertex  1.919000e+000 1.525049e-001 3.610001e-001
      vertex  1.919000e+000 -1.524951e-001 3.959999e-001
    endloop
  endfacet
  facet normal 1.000000e+000 1.563400e-006 0.000000e+000
    outer loop
      vertex  1.919000e+000 -1.524951e-001 3.959999e-001
      vertex  1.919000e+000 1.525049e-001 3.610001e-001
      vertex  1.919000e+000 1.525049e-001 3.960001e-001
    endloop
  endfacet
  facet normal 2.980233e-006 -1.000000e+000 0.000000e+000
    outer loop
      vertex  1.919000e+000 1.525049e-001 3.610001e-001
      vertex  2.224000e+000 1.525058e-001 3.610001e-001
      vertex  1.919000e+000 1.525049e-001 3.960001e-001
    endloop
  endfacet
  facet normal 2.638239e-006 -1.000000e+000 -2.980233e-006
    outer loop
      vertex  1.919000e+000 1.525049e-001 3.960001e-001
      vertex  2.224000e+000 1.525058e-001 3.610001e-001
      vertex  2.224000e+000 1.525057e-001 3.960001e-001
    endloop
  endfacet
  facet normal 1.000000e+000 2.326035e-006 -0.000000e+000
    outer loop
      vertex  2.174000e+000 -1.024944e-001 3.609999e-001
      vertex  2.174000e+000 1.025056e-001 3.610001e-001
      vertex  2.174000e+000 -1.024944e-001 3.959999e-001
    endloop
  endfacet
  facet normal 1.000000e+000 2.326035e-006 0.000000e+000
    outer loop
      vertex  2.174000e+000 -1.024944e-001 3.959999e-001
      vertex  2.174000e+000 1.025056e-001 3.610001e-001
      vertex  2.174000e+000 1.025056e-001 3.960001e-001
    endloop
  endfacet
  facet normal -8.722600e-007 -8.722641e-007 1.000000e+000
    outer loop
      vertex  1.969000e+000 1.025050e-001 3.610001e-001
      vertex  1.919000e+000 1.525049e-001 3.610001e-001
      vertex  1.969000e+000 -1.024950e-001 3.609999e-001
    endloop
  endfacet
  facet normal 5.862781e-007 -5.862743e-007 1.000000e+000
    outer loop
      vertex  1.969000e+000 -1.024950e-001 3.609999e-001
      vertex  1.919000e+000 1.525049e-001 3.610001e-001
      vertex  1.919000e+000 -1.524951e-001 3.609999e-001
    endloop
  endfacet
  facet normal -0.000000e+000 0.000000e+000 1.000000e+000
    outer loop
      vertex  1.969000e+000 -1.024950e-001 3.609999e-001
      vertex  1.919000e+000 -1.524951e-001 3.609999e-001
      vertex  2.174000e+000 -1.024944e-001 3.609999e-001
    endloop
  endfacet
  facet normal 0.000000e+000 0.000000e+000 1.000000e+000
    outer loop
      vertex  2.174000e+000 -1.024944e-001 3.609999e-001
      vertex  1.919000e+000 -1.524951e-001 3.609999e-001
      vertex  2.224000e+000 -1.524942e-001 3.609999e-001
    endloop
  endfacet
  facet normal -8.722632e-007 -8.722651e-007 1.000000e+000
    outer loop
      vertex  2.174000e+000 -1.024944e-001 3.609999e-001
      vertex  2.224000e+000 -1.524942e-001 3.609999e-001
      vertex  2.174000e+000 1.025056e-001 3.610001e-001
    endloop
  endfacet
  facet normal 5.862767e-007 -5.862743e-007 1.000000e+000
    outer loop
      vertex  2.174000e+000 1.025056e-001 3.610001e-001
      vertex  2.224000e+000 -1.524942e-001 3.609999e-001
      vertex  2.224000e+000 1.525058e-001 3.610001e-001
    endloop
  endfacet
  facet normal 0.000000e+000 -0.000000e+000 1.000000e+000
    outer loop
      vertex  2.174000e+000 1.025056e-001 3.610001e-001
      vertex  2.224000e+000 1.525058e-001 3.610001e-001
      vertex  1.969000e+000 1.025050e-001 3.610001e-001
    endloop
  endfacet
  facet normal 0.000000e+000 -0.000000e+000 1.000000e+000
    outer loop
      vertex  1.969000e+000 1.025050e-001 3.610001e-001
      vertex  2.224000e+000 1.525058e-001 3.610001e-001
      vertex  1.919000e+000 1.525049e-001 3.610001e-001
    endloop
  endfacet
  facet normal -1.000000e+000 -2.445319e-006 -1.561633e-012
    outer loop
      vertex  2.169000e+000 9.750559e-002 3.610001e-001
      vertex  2.169000e+000 -9.749439e-002 3.609999e-001
      vertex  2.169000e+000 9.750557e-002 3.960001e-001
    endloop
  endfacet
  facet normal -1.000000e+000 -2.445319e-006 -2.082177e-012
    outer loop
      vertex  2.169000e+000 9.750557e-002 3.960001e-001
      vertex  2.169000e+000 -9.749439e-002 3.609999e-001
      vertex  2.169000e+000 -9.749442e-002 3.959999e-001
    endloop
  endfacet
  facet normal -2.674567e-006 1.000000e+000 8.514950e-007
    outer loop
      vertex  2.169000e+000 -9.749439e-002 3.609999e-001
      vertex  1.974000e+000 -9.749492e-002 3.609999e-001
      vertex  2.169000e+000 -9.749442e-002 3.959999e-001
    endloop
  endfacet
  facet normal -2.674567e-006 1.000000e+000 8.514945e-007
    outer loop
      vertex  2.169000e+000 -9.749442e-002 3.959999e-001
      vertex  1.974000e+000 -9.749492e-002 3.609999e-001
      vertex  1.974000e+000 -9.749494e-002 3.959999e-001
    endloop
  endfacet
  facet normal 1.000000e+000 1.222659e-006 1.041088e-012
    outer loop
      vertex  1.974000e+000 -9.749492e-002 3.609999e-001
      vertex  1.974000e+000 9.750507e-002 3.610001e-001
      vertex  1.974000e+000 -9.749494e-002 3.959999e-001
    endloop
  endfacet
  facet normal 1.000000e+000 1.222659e-006 5.205442e-013
    outer loop
      vertex  1.974000e+000 9.750507e-002 3.610001e-001
      vertex  1.974000e+000 9.750506e-002 3.960001e-001
      vertex  1.974000e+000 -9.749494e-002 3.959999e-001
    endloop
  endfacet
  facet normal 2.674570e-006 -1.000000e+000 -4.257473e-007
    outer loop
      vertex  2.169000e+000 9.750559e-002 3.610001e-001
      vertex  1.974000e+000 9.750506e-002 3.960001e-001
      vertex  1.974000e+000 9.750507e-002 3.610001e-001
    endloop
  endfacet
  facet normal 2.636362e-006 -1.000000e+000 -6.386209e-007
    outer loop
      vertex  1.974000e+000 9.750506e-002 3.960001e-001
      vertex  2.169000e+000 9.750559e-002 3.610001e-001
      vertex  2.169000e+000 9.750557e-002 3.960001e-001
    endloop
  endfacet
  facet normal 3.947460e-012 -1.490117e-006 1.000000e+000
    outer loop
      vertex  2.034000e+000 -3.749477e-002 3.610000e-001
      vertex  1.974000e+000 -9.749492e-002 3.609999e-001
      vertex  2.169000e+000 -9.749439e-002 3.609999e-001
    endloop
  endfacet
  facet normal -5.731204e-007 -9.169953e-007 1.000000e+000
    outer loop
      vertex  1.974000e+000 -9.749492e-002 3.609999e-001
      vertex  2.034000e+000 -3.749477e-002 3.610000e-001
      vertex  1.974000e+000 9.750507e-002 3.610001e-001
    endloop
  endfacet
  facet normal 1.490114e-006 0.000000e+000 1.000000e+000
    outer loop
      vertex  1.974000e+000 9.750507e-002 3.610001e-001
      vertex  2.034000e+000 -3.749477e-002 3.610000e-001
      vertex  2.034000e+000 3.750523e-002 3.610000e-001
    endloop
  endfacet
  facet normal 3.985420e-012 -1.490116e-006 1.000000e+000
    outer loop
      vertex  1.974000e+000 9.750507e-002 3.610001e-001
      vertex  2.034000e+000 3.750523e-002 3.610000e-001
      vertex  2.169000e+000 9.750559e-002 3.610001e-001
    endloop
  endfacet
  facet normal 3.947457e-012 -1.490116e-006 1.000000e+000
    outer loop
      vertex  2.169000e+000 9.750559e-002 3.610001e-001
      vertex  2.034000e+000 3.750523e-002 3.610000e-001
      vertex  2.109000e+000 3.750543e-002 3.610000e-001
    endloop
  endfacet
  facet normal -5.731205e-007 -9.169959e-007 1.000000e+000
    outer loop
      vertex  2.169000e+000 9.750559e-002 3.610001e-001
      vertex  2.109000e+000 3.750543e-002 3.610000e-001
      vertex  2.169000e+000 -9.749439e-002 3.609999e-001
    endloop
  endfacet
  facet normal 1.490112e-006 0.000000e+000 1.000000e+000
    outer loop
      vertex  2.169000e+000 -9.749439e-002 3.609999e-001
      vertex  2.109000e+000 3.750543e-002 3.610000e-001
      vertex  2.109000e+000 -3.749457e-002 3.610000e-001
    endloop
  endfacet
  facet normal 3.947458e-012 -1.490116e-006 1.000000e+000
    outer loop
      vertex  2.169000e+000 -9.749439e-002 3.609999e-001
      vertex  2.109000e+000 -3.749457e-002 3.610000e-001
      vertex  2.034000e+000 -3.749477e-002 3.610000e-001
    endloop
  endfacet
  facet normal 0.000000e+000 -0.000000e+000 1.000000e+000
    outer loop
      vertex  2.109000e+000 -3.749462e-002 4.310000e-001
      vertex  2.109000e+000 3.750539e-002 4.310000e-001
      vertex  2.034000e+000 -3.749482e-002 4.310000e-001
    endloop
  endfacet
  facet normal 0.000000e+000 0.000000e+000 1.000000e+000
    outer loop
      vertex  2.034000e+000 -3.749482e-002 4.310000e-001
      vertex  2.109000e+000 3.750539e-002 4.310000e-001
      vertex  2.034000e+000 3.750519e-002 4.310000e-001
    endloop
  endfacet
  facet normal -1.000000e+000 0.000000e+000 0.000000e+000
    outer loop
      vertex  2.034000e+000 -3.749477e-002 3.610000e-001
      vertex  2.034000e+000 -3.749482e-002 4.310000e-001
      vertex  2.034000e+000 3.750523e-002 3.610000e-001
    endloop
  endfacet
  facet normal -1.000000e+000 0.000000e+000 0.000000e+000
    outer loop
      vertex  2.034000e+000 3.750523e-002 3.610000e-001
      vertex  2.034000e+000 -3.749482e-002 4.310000e-001
      vertex  2.034000e+000 3.750519e-002 4.310000e-001
    endloop
  endfacet
  facet normal -2.682207e-006 1.000000e+000 5.854028e-007
    outer loop
      vertex  2.034000e+000 3.750523e-002 3.610000e-001
      vertex  2.034000e+000 3.750519e-002 4.310000e-001
      vertex  2.109000e+000 3.750543e-002 3.610000e-001
    endloop
  endfacet
  facet normal -2.682207e-006 1.000000e+000 5.854028e-007
    outer loop
      vertex  2.109000e+000 3.750543e-002 3.610000e-001
      vertex  2.034000e+000 3.750519e-002 4.310000e-001
      vertex  2.109000e+000 3.750539e-002 4.310000e-001
    endloop
  endfacet
  facet normal 1.000000e+000 0.000000e+000 0.000000e+000
    outer loop
      vertex  2.109000e+000 3.750543e-002 3.610000e-001
      vertex  2.109000e+000 3.750539e-002 4.310000e-001
      vertex  2.109000e+000 -3.749457e-002 3.610000e-001
    endloop
  endfacet
  facet normal 1.000000e+000 0.000000e+000 -0.000000e+000
    outer loop
      vertex  2.109000e+000 -3.749457e-002 3.610000e-001
      vertex  2.109000e+000 3.750539e-002 4.310000e-001
      vertex  2.109000e+000 -3.749462e-002 4.310000e-001
    endloop
  endfacet
  facet normal 2.682207e-006 -1.000000e+000 -6.918397e-007
    outer loop
      vertex  2.109000e+000 -3.749457e-002 3.610000e-001
      vertex  2.109000e+000 -3.749462e-002 4.310000e-001
      vertex  2.034000e+000 -3.749477e-002 3.610000e-001
    endloop
  endfacet
  facet normal 2.682207e-006 -1.000000e+000 -6.918397e-007
    outer loop
      vertex  2.034000e+000 -3.749477e-002 3.610000e-001
      vertex  2.109000e+000 -3.749462e-002 4.310000e-001
      vertex  2.034000e+000 -3.749482e-002 4.310000e-001
    endloop
  endfacet
endsolid vcg
