solid vcg
  facet normal 0.000000e+000 1.343519e-006 -1.000000e+000
    outer loop
      vertex  4.999936e-001 8.000000e-001 -5.999923e-003
      vertex  4.999936e-001 2.950065e-001 -6.000601e-003
      vertex  0.000000e+000 8.000000e-001 -5.999923e-003
    endloop
  endfacet
  facet normal 0.000000e+000 1.343519e-006 -1.000000e+000
    outer loop
      vertex  0.000000e+000 8.000000e-001 -5.999923e-003
      vertex  4.999936e-001 2.950065e-001 -6.000601e-003
      vertex  0.000000e+000 2.950065e-001 -6.000601e-003
    endloop
  endfacet
  facet normal 0.000000e+000 1.000000e+000 0.000000e+000
    outer loop
      vertex  4.999936e-001 8.000000e-001 0.000000e+000
      vertex  4.999936e-001 8.000000e-001 -5.999923e-003
      vertex  0.000000e+000 8.000000e-001 0.000000e+000
    endloop
  endfacet
  facet normal 0.000000e+000 1.000000e+000 0.000000e+000
    outer loop
      vertex  0.000000e+000 8.000000e-001 0.000000e+000
      vertex  4.999936e-001 8.000000e-001 -5.999923e-003
      vertex  0.000000e+000 8.000000e-001 -5.999923e-003
    endloop
  endfacet
  facet normal 0.000000e+000 -1.343089e-006 1.000000e+000
    outer loop
      vertex  4.999936e-001 -7.999794e-001 -2.148914e-006
      vertex  4.999936e-001 8.000000e-001 0.000000e+000
      vertex  0.000000e+000 -7.999794e-001 -2.148914e-006
    endloop
  endfacet
  facet normal 0.000000e+000 -1.343089e-006 1.000000e+000
    outer loop
      vertex  0.000000e+000 -7.999794e-001 -2.148914e-006
      vertex  4.999936e-001 8.000000e-001 0.000000e+000
      vertex  0.000000e+000 8.000000e-001 0.000000e+000
    endloop
  endfacet
  facet normal 0.000000e+000 -1.000000e+000 0.000000e+000
    outer loop
      vertex  4.999936e-001 -7.999794e-001 -6.002072e-003
      vertex  4.999936e-001 -7.999794e-001 -2.148914e-006
      vertex  0.000000e+000 -7.999794e-001 -6.002072e-003
    endloop
  endfacet
  facet normal 0.000000e+000 -1.000000e+000 0.000000e+000
    outer loop
      vertex  0.000000e+000 -7.999794e-001 -6.002072e-003
      vertex  4.999936e-001 -7.999794e-001 -2.148914e-006
      vertex  0.000000e+000 -7.999794e-001 -2.148914e-006
    endloop
  endfacet
  facet normal 0.000000e+000 1.343519e-006 -1.000000e+000
    outer loop
      vertex  4.999936e-001 -2.949859e-001 -6.001393e-003
      vertex  4.999936e-001 -7.999794e-001 -6.002072e-003
      vertex  0.000000e+000 -2.949859e-001 -6.001393e-003
    endloop
  endfacet
  facet normal 0.000000e+000 1.343519e-006 -1.000000e+000
    outer loop
      vertex  0.000000e+000 -2.949859e-001 -6.001393e-003
      vertex  4.999936e-001 -7.999794e-001 -6.002072e-003
      vertex  0.000000e+000 -7.999794e-001 -6.002072e-003
    endloop
  endfacet
  facet normal -0.000000e+000 -1.000000e+000 -1.324565e-006
    outer loop
      vertex  4.999936e-001 -2.949858e-001 -9.600023e-002
      vertex  4.999936e-001 -2.949859e-001 -6.001393e-003
      vertex  0.000000e+000 -2.949858e-001 -9.600023e-002
    endloop
  endfacet
  facet normal 0.000000e+000 -1.000000e+000 -1.324565e-006
    outer loop
      vertex  0.000000e+000 -2.949858e-001 -9.600023e-002
      vertex  4.999936e-001 -2.949859e-001 -6.001393e-003
      vertex  0.000000e+000 -2.949859e-001 -6.001393e-003
    endloop
  endfacet
  facet normal -0.000000e+000 -4.705869e-001 -8.823535e-001
    outer loop
      vertex  4.999936e-001 -6.998849e-002 -2.159984e-001
      vertex  4.999936e-001 -2.949858e-001 -9.600023e-002
      vertex  -2.220417e-016 -6.998849e-002 -2.159984e-001
    endloop
  endfacet
  facet normal 0.000000e+000 -4.705869e-001 -8.823535e-001
    outer loop
      vertex  -2.220417e-016 -6.998849e-002 -2.159984e-001
      vertex  4.999936e-001 -2.949858e-001 -9.600023e-002
      vertex  -2.220417e-016 -2.949858e-001 -9.600023e-002
    endloop
  endfacet
  facet normal 0.000000e+000 1.277259e-006 -1.000000e+000
    outer loop
      vertex  4.999936e-001 7.000971e-002 -2.159982e-001
      vertex  4.999936e-001 -6.998849e-002 -2.159984e-001
      vertex  0.000000e+000 7.000971e-002 -2.159982e-001
    endloop
  endfacet
  facet normal 0.000000e+000 1.277259e-006 -1.000000e+000
    outer loop
      vertex  0.000000e+000 7.000971e-002 -2.159982e-001
      vertex  4.999936e-001 -6.998849e-002 -2.159984e-001
      vertex  0.000000e+000 -6.998849e-002 -2.159984e-001
    endloop
  endfacet
  facet normal 0.000000e+000 4.705894e-001 -8.823522e-001
    outer loop
      vertex  4.999936e-001 2.950066e-001 -9.599944e-002
      vertex  4.999936e-001 7.000971e-002 -2.159982e-001
      vertex  0.000000e+000 2.950066e-001 -9.599944e-002
    endloop
  endfacet
  facet normal 0.000000e+000 4.705894e-001 -8.823522e-001
    outer loop
      vertex  0.000000e+000 2.950066e-001 -9.599944e-002
      vertex  4.999936e-001 7.000971e-002 -2.159982e-001
      vertex  0.000000e+000 7.000971e-002 -2.159982e-001
    endloop
  endfacet
  facet normal 0.000000e+000 1.000000e+000 1.324565e-006
    outer loop
      vertex  4.999936e-001 2.950065e-001 -6.000601e-003
      vertex  4.999936e-001 2.950066e-001 -9.599944e-002
      vertex  0.000000e+000 2.950065e-001 -6.000601e-003
    endloop
  endfacet
  facet normal 0.000000e+000 1.000000e+000 1.324565e-006
    outer loop
      vertex  0.000000e+000 2.950065e-001 -6.000601e-003
      vertex  4.999936e-001 2.950066e-001 -9.599944e-002
      vertex  0.000000e+000 2.950066e-001 -9.599944e-002
    endloop
  endfacet
  facet normal 1.000000e+000 0.000000e+000 0.000000e+000
    outer loop
      vertex  4.999936e-001 -7.999794e-001 -2.148914e-006
      vertex  4.999936e-001 -7.999794e-001 -6.002072e-003
      vertex  4.999936e-001 -2.949859e-001 -6.001393e-003
    endloop
  endfacet
  facet normal 1.000000e+000 -0.000000e+000 0.000000e+000
    outer loop
      vertex  4.999936e-001 -7.999794e-001 -2.148914e-006
      vertex  4.999936e-001 -2.949859e-001 -6.001393e-003
      vertex  4.999936e-001 8.000000e-001 0.000000e+000
    endloop
  endfacet
  facet normal 1.000000e+000 0.000000e+000 0.000000e+000
    outer loop
      vertex  4.999936e-001 8.000000e-001 0.000000e+000
      vertex  4.999936e-001 -2.949859e-001 -6.001393e-003
      vertex  4.999936e-001 2.950065e-001 -6.000601e-003
    endloop
  endfacet
  facet normal 1.000000e+000 0.000000e+000 0.000000e+000
    outer loop
      vertex  4.999936e-001 2.950065e-001 -6.000601e-003
      vertex  4.999936e-001 8.000000e-001 -5.999923e-003
      vertex  4.999936e-001 8.000000e-001 0.000000e+000
    endloop
  endfacet
  facet normal 1.000000e+000 0.000000e+000 0.000000e+000
    outer loop
      vertex  4.999936e-001 2.950066e-001 -9.599944e-002
      vertex  4.999936e-001 2.950065e-001 -6.000601e-003
      vertex  4.999936e-001 7.000971e-002 -2.159982e-001
    endloop
  endfacet
  facet normal 1.000000e+000 0.000000e+000 -0.000000e+000
    outer loop
      vertex  4.999936e-001 7.000971e-002 -2.159982e-001
      vertex  4.999936e-001 2.950065e-001 -6.000601e-003
      vertex  4.999936e-001 -2.949859e-001 -6.001393e-003
    endloop
  endfacet
  facet normal 1.000000e+000 0.000000e+000 0.000000e+000
    outer loop
      vertex  4.999936e-001 7.000971e-002 -2.159982e-001
      vertex  4.999936e-001 -2.949859e-001 -6.001393e-003
      vertex  4.999936e-001 -6.998849e-002 -2.159984e-001
    endloop
  endfacet
  facet normal 1.000000e+000 0.000000e+000 0.000000e+000
    outer loop
      vertex  4.999936e-001 -6.998849e-002 -2.159984e-001
      vertex  4.999936e-001 -2.949859e-001 -6.001393e-003
      vertex  4.999936e-001 -2.949858e-001 -9.600023e-002
    endloop
  endfacet
  facet normal -1.000000e+000 0.000000e+000 -0.000000e+000
    outer loop
      vertex  0.000000e+000 8.000000e-001 0.000000e+000
      vertex  0.000000e+000 8.000000e-001 -5.999923e-003
      vertex  0.000000e+000 2.950065e-001 -6.000601e-003
    endloop
  endfacet
  facet normal -1.000000e+000 0.000000e+000 0.000000e+000
    outer loop
      vertex  0.000000e+000 8.000000e-001 0.000000e+000
      vertex  0.000000e+000 2.950065e-001 -6.000601e-003
      vertex  0.000000e+000 -7.999794e-001 -2.148914e-006
    endloop
  endfacet
  facet normal -1.000000e+000 0.000000e+000 0.000000e+000
    outer loop
      vertex  0.000000e+000 -7.999794e-001 -2.148914e-006
      vertex  0.000000e+000 2.950065e-001 -6.000601e-003
      vertex  0.000000e+000 -2.949859e-001 -6.001393e-003
    endloop
  endfacet
  facet normal -1.000000e+000 0.000000e+000 0.000000e+000
    outer loop
      vertex  0.000000e+000 -7.999794e-001 -2.148914e-006
      vertex  0.000000e+000 -2.949859e-001 -6.001393e-003
      vertex  0.000000e+000 -7.999794e-001 -6.002072e-003
    endloop
  endfacet
  facet normal -1.000000e+000 0.000000e+000 0.000000e+000
    outer loop
      vertex  0.000000e+000 -6.998849e-002 -2.159984e-001
      vertex  0.000000e+000 -2.949858e-001 -9.600023e-002
      vertex  0.000000e+000 7.000971e-002 -2.159982e-001
    endloop
  endfacet
  facet normal -1.000000e+000 0.000000e+000 0.000000e+000
    outer loop
      vertex  0.000000e+000 7.000971e-002 -2.159982e-001
      vertex  0.000000e+000 -2.949858e-001 -9.600023e-002
      vertex  0.000000e+000 -2.949859e-001 -6.001393e-003
    endloop
  endfacet
  facet normal -1.000000e+000 0.000000e+000 0.000000e+000
    outer loop
      vertex  0.000000e+000 7.000971e-002 -2.159982e-001
      vertex  0.000000e+000 -2.949859e-001 -6.001393e-003
      vertex  0.000000e+000 2.950066e-001 -9.599944e-002
    endloop
  endfacet
  facet normal -1.000000e+000 0.000000e+000 0.000000e+000
    outer loop
      vertex  0.000000e+000 2.950066e-001 -9.599944e-002
      vertex  0.000000e+000 -2.949859e-001 -6.001393e-003
      vertex  0.000000e+000 2.950065e-001 -6.000601e-003
    endloop
  endfacet
endsolid vcg
